<?xml version="1.0" encoding="utf-8"?>
<svg xmlns="http://www.w3.org/2000/svg" xmlns:xlink="http://www.w3.org/1999/xlink" width="600" height="400" viewBox="0 0 2400 1600">
<defs>
  <clipPath id="clip770">
    <rect x="0" y="0" width="2400" height="1600"/>
  </clipPath>
</defs>
<path clip-path="url(#clip770)" d="
M0 1600 L2400 1600 L2400 0 L0 0  Z
  " fill="#ffffff" fill-rule="evenodd" fill-opacity="1"/>
<defs>
  <clipPath id="clip771">
    <rect x="480" y="0" width="1681" height="1600"/>
  </clipPath>
</defs>
<path clip-path="url(#clip770)" d="
M339.608 1423.18 L2352.76 1423.18 L2352.76 123.472 L339.608 123.472  Z
  " fill="#ffffff" fill-rule="evenodd" fill-opacity="1"/>
<defs>
  <clipPath id="clip772">
    <rect x="339" y="123" width="2014" height="1301"/>
  </clipPath>
</defs>
<polyline clip-path="url(#clip772)" style="stroke:#000000; stroke-linecap:round; stroke-linejoin:round; stroke-width:2; stroke-opacity:0.1; fill:none" points="
  543.029,1423.18 543.029,123.472 
  "/>
<polyline clip-path="url(#clip772)" style="stroke:#000000; stroke-linecap:round; stroke-linejoin:round; stroke-width:2; stroke-opacity:0.1; fill:none" points="
  961.168,1423.18 961.168,123.472 
  "/>
<polyline clip-path="url(#clip772)" style="stroke:#000000; stroke-linecap:round; stroke-linejoin:round; stroke-width:2; stroke-opacity:0.1; fill:none" points="
  1379.31,1423.18 1379.31,123.472 
  "/>
<polyline clip-path="url(#clip772)" style="stroke:#000000; stroke-linecap:round; stroke-linejoin:round; stroke-width:2; stroke-opacity:0.1; fill:none" points="
  1797.45,1423.18 1797.45,123.472 
  "/>
<polyline clip-path="url(#clip772)" style="stroke:#000000; stroke-linecap:round; stroke-linejoin:round; stroke-width:2; stroke-opacity:0.1; fill:none" points="
  2215.58,1423.18 2215.58,123.472 
  "/>
<polyline clip-path="url(#clip770)" style="stroke:#000000; stroke-linecap:round; stroke-linejoin:round; stroke-width:4; stroke-opacity:1; fill:none" points="
  339.608,1423.18 2352.76,1423.18 
  "/>
<polyline clip-path="url(#clip770)" style="stroke:#000000; stroke-linecap:round; stroke-linejoin:round; stroke-width:4; stroke-opacity:1; fill:none" points="
  543.029,1423.18 543.029,1404.28 
  "/>
<polyline clip-path="url(#clip770)" style="stroke:#000000; stroke-linecap:round; stroke-linejoin:round; stroke-width:4; stroke-opacity:1; fill:none" points="
  961.168,1423.18 961.168,1404.28 
  "/>
<polyline clip-path="url(#clip770)" style="stroke:#000000; stroke-linecap:round; stroke-linejoin:round; stroke-width:4; stroke-opacity:1; fill:none" points="
  1379.31,1423.18 1379.31,1404.28 
  "/>
<polyline clip-path="url(#clip770)" style="stroke:#000000; stroke-linecap:round; stroke-linejoin:round; stroke-width:4; stroke-opacity:1; fill:none" points="
  1797.45,1423.18 1797.45,1404.28 
  "/>
<polyline clip-path="url(#clip770)" style="stroke:#000000; stroke-linecap:round; stroke-linejoin:round; stroke-width:4; stroke-opacity:1; fill:none" points="
  2215.58,1423.18 2215.58,1404.28 
  "/>
<path clip-path="url(#clip770)" d="M505.83 1454.1 Q502.219 1454.1 500.39 1457.66 Q498.585 1461.2 498.585 1468.33 Q498.585 1475.44 500.39 1479.01 Q502.219 1482.55 505.83 1482.55 Q509.464 1482.55 511.27 1479.01 Q513.099 1475.44 513.099 1468.33 Q513.099 1461.2 511.27 1457.66 Q509.464 1454.1 505.83 1454.1 M505.83 1450.39 Q511.64 1450.39 514.696 1455 Q517.775 1459.58 517.775 1468.33 Q517.775 1477.06 514.696 1481.67 Q511.64 1486.25 505.83 1486.25 Q500.02 1486.25 496.941 1481.67 Q493.886 1477.06 493.886 1468.33 Q493.886 1459.58 496.941 1455 Q500.02 1450.39 505.83 1450.39 Z" fill="#000000" fill-rule="evenodd" fill-opacity="1" /><path clip-path="url(#clip770)" d="M525.992 1479.7 L530.876 1479.7 L530.876 1485.58 L525.992 1485.58 L525.992 1479.7 Z" fill="#000000" fill-rule="evenodd" fill-opacity="1" /><path clip-path="url(#clip770)" d="M551.061 1454.1 Q547.45 1454.1 545.622 1457.66 Q543.816 1461.2 543.816 1468.33 Q543.816 1475.44 545.622 1479.01 Q547.45 1482.55 551.061 1482.55 Q554.696 1482.55 556.501 1479.01 Q558.33 1475.44 558.33 1468.33 Q558.33 1461.2 556.501 1457.66 Q554.696 1454.1 551.061 1454.1 M551.061 1450.39 Q556.872 1450.39 559.927 1455 Q563.006 1459.58 563.006 1468.33 Q563.006 1477.06 559.927 1481.67 Q556.872 1486.25 551.061 1486.25 Q545.251 1486.25 542.173 1481.67 Q539.117 1477.06 539.117 1468.33 Q539.117 1459.58 542.173 1455 Q545.251 1450.39 551.061 1450.39 Z" fill="#000000" fill-rule="evenodd" fill-opacity="1" /><path clip-path="url(#clip770)" d="M571.27 1451.02 L589.626 1451.02 L589.626 1454.96 L575.552 1454.96 L575.552 1463.43 Q576.571 1463.08 577.589 1462.92 Q578.608 1462.73 579.626 1462.73 Q585.413 1462.73 588.793 1465.9 Q592.172 1469.08 592.172 1474.49 Q592.172 1480.07 588.7 1483.17 Q585.228 1486.25 578.908 1486.25 Q576.733 1486.25 574.464 1485.88 Q572.219 1485.51 569.811 1484.77 L569.811 1480.07 Q571.895 1481.2 574.117 1481.76 Q576.339 1482.32 578.816 1482.32 Q582.821 1482.32 585.158 1480.21 Q587.496 1478.1 587.496 1474.49 Q587.496 1470.88 585.158 1468.77 Q582.821 1466.67 578.816 1466.67 Q576.941 1466.67 575.066 1467.08 Q573.214 1467.5 571.27 1468.38 L571.27 1451.02 Z" fill="#000000" fill-rule="evenodd" fill-opacity="1" /><path clip-path="url(#clip770)" d="M923.471 1454.1 Q919.86 1454.1 918.031 1457.66 Q916.226 1461.2 916.226 1468.33 Q916.226 1475.44 918.031 1479.01 Q919.86 1482.55 923.471 1482.55 Q927.106 1482.55 928.911 1479.01 Q930.74 1475.44 930.74 1468.33 Q930.74 1461.2 928.911 1457.66 Q927.106 1454.1 923.471 1454.1 M923.471 1450.39 Q929.281 1450.39 932.337 1455 Q935.416 1459.58 935.416 1468.33 Q935.416 1477.06 932.337 1481.67 Q929.281 1486.25 923.471 1486.25 Q917.661 1486.25 914.582 1481.67 Q911.527 1477.06 911.527 1468.33 Q911.527 1459.58 914.582 1455 Q917.661 1450.39 923.471 1450.39 Z" fill="#000000" fill-rule="evenodd" fill-opacity="1" /><path clip-path="url(#clip770)" d="M943.633 1479.7 L948.517 1479.7 L948.517 1485.58 L943.633 1485.58 L943.633 1479.7 Z" fill="#000000" fill-rule="evenodd" fill-opacity="1" /><path clip-path="url(#clip770)" d="M959.513 1481.64 L967.152 1481.64 L967.152 1455.28 L958.841 1456.95 L958.841 1452.69 L967.105 1451.02 L971.781 1451.02 L971.781 1481.64 L979.42 1481.64 L979.42 1485.58 L959.513 1485.58 L959.513 1481.64 Z" fill="#000000" fill-rule="evenodd" fill-opacity="1" /><path clip-path="url(#clip770)" d="M998.864 1454.1 Q995.253 1454.1 993.425 1457.66 Q991.619 1461.2 991.619 1468.33 Q991.619 1475.44 993.425 1479.01 Q995.253 1482.55 998.864 1482.55 Q1002.5 1482.55 1004.3 1479.01 Q1006.13 1475.44 1006.13 1468.33 Q1006.13 1461.2 1004.3 1457.66 Q1002.5 1454.1 998.864 1454.1 M998.864 1450.39 Q1004.67 1450.39 1007.73 1455 Q1010.81 1459.58 1010.81 1468.33 Q1010.81 1477.06 1007.73 1481.67 Q1004.67 1486.25 998.864 1486.25 Q993.054 1486.25 989.976 1481.67 Q986.92 1477.06 986.92 1468.33 Q986.92 1459.58 989.976 1455 Q993.054 1450.39 998.864 1450.39 Z" fill="#000000" fill-rule="evenodd" fill-opacity="1" /><path clip-path="url(#clip770)" d="M1342.11 1454.1 Q1338.5 1454.1 1336.67 1457.66 Q1334.86 1461.2 1334.86 1468.33 Q1334.86 1475.44 1336.67 1479.01 Q1338.5 1482.55 1342.11 1482.55 Q1345.74 1482.55 1347.55 1479.01 Q1349.38 1475.44 1349.38 1468.33 Q1349.38 1461.2 1347.55 1457.66 Q1345.74 1454.1 1342.11 1454.1 M1342.11 1450.39 Q1347.92 1450.39 1350.97 1455 Q1354.05 1459.58 1354.05 1468.33 Q1354.05 1477.06 1350.97 1481.67 Q1347.92 1486.25 1342.11 1486.25 Q1336.3 1486.25 1333.22 1481.67 Q1330.16 1477.06 1330.16 1468.33 Q1330.16 1459.58 1333.22 1455 Q1336.3 1450.39 1342.11 1450.39 Z" fill="#000000" fill-rule="evenodd" fill-opacity="1" /><path clip-path="url(#clip770)" d="M1362.27 1479.7 L1367.15 1479.7 L1367.15 1485.58 L1362.27 1485.58 L1362.27 1479.7 Z" fill="#000000" fill-rule="evenodd" fill-opacity="1" /><path clip-path="url(#clip770)" d="M1378.15 1481.64 L1385.79 1481.64 L1385.79 1455.28 L1377.48 1456.95 L1377.48 1452.69 L1385.74 1451.02 L1390.42 1451.02 L1390.42 1481.64 L1398.06 1481.64 L1398.06 1485.58 L1378.15 1485.58 L1378.15 1481.64 Z" fill="#000000" fill-rule="evenodd" fill-opacity="1" /><path clip-path="url(#clip770)" d="M1407.55 1451.02 L1425.9 1451.02 L1425.9 1454.96 L1411.83 1454.96 L1411.83 1463.43 Q1412.85 1463.08 1413.87 1462.92 Q1414.89 1462.73 1415.9 1462.73 Q1421.69 1462.73 1425.07 1465.9 Q1428.45 1469.08 1428.45 1474.49 Q1428.45 1480.07 1424.98 1483.17 Q1421.51 1486.25 1415.19 1486.25 Q1413.01 1486.25 1410.74 1485.88 Q1408.5 1485.51 1406.09 1484.77 L1406.09 1480.07 Q1408.17 1481.2 1410.39 1481.76 Q1412.62 1482.32 1415.09 1482.32 Q1419.1 1482.32 1421.44 1480.21 Q1423.77 1478.1 1423.77 1474.49 Q1423.77 1470.88 1421.44 1468.77 Q1419.1 1466.67 1415.09 1466.67 Q1413.22 1466.67 1411.34 1467.08 Q1409.49 1467.5 1407.55 1468.38 L1407.55 1451.02 Z" fill="#000000" fill-rule="evenodd" fill-opacity="1" /><path clip-path="url(#clip770)" d="M1759.75 1454.1 Q1756.14 1454.1 1754.31 1457.66 Q1752.5 1461.2 1752.5 1468.33 Q1752.5 1475.44 1754.31 1479.01 Q1756.14 1482.55 1759.75 1482.55 Q1763.38 1482.55 1765.19 1479.01 Q1767.02 1475.44 1767.02 1468.33 Q1767.02 1461.2 1765.19 1457.66 Q1763.38 1454.1 1759.75 1454.1 M1759.75 1450.39 Q1765.56 1450.39 1768.61 1455 Q1771.69 1459.58 1771.69 1468.33 Q1771.69 1477.06 1768.61 1481.67 Q1765.56 1486.25 1759.75 1486.25 Q1753.94 1486.25 1750.86 1481.67 Q1747.8 1477.06 1747.8 1468.33 Q1747.8 1459.58 1750.86 1455 Q1753.94 1450.39 1759.75 1450.39 Z" fill="#000000" fill-rule="evenodd" fill-opacity="1" /><path clip-path="url(#clip770)" d="M1779.91 1479.7 L1784.79 1479.7 L1784.79 1485.58 L1779.91 1485.58 L1779.91 1479.7 Z" fill="#000000" fill-rule="evenodd" fill-opacity="1" /><path clip-path="url(#clip770)" d="M1799.01 1481.64 L1815.33 1481.64 L1815.33 1485.58 L1793.38 1485.58 L1793.38 1481.64 Q1796.04 1478.89 1800.63 1474.26 Q1805.23 1469.61 1806.42 1468.27 Q1808.66 1465.74 1809.54 1464.01 Q1810.44 1462.25 1810.44 1460.56 Q1810.44 1457.8 1808.5 1456.07 Q1806.58 1454.33 1803.48 1454.33 Q1801.28 1454.33 1798.82 1455.09 Q1796.39 1455.86 1793.61 1457.41 L1793.61 1452.69 Q1796.44 1451.55 1798.89 1450.97 Q1801.35 1450.39 1803.38 1450.39 Q1808.75 1450.39 1811.95 1453.08 Q1815.14 1455.77 1815.14 1460.26 Q1815.14 1462.39 1814.33 1464.31 Q1813.54 1466.2 1811.44 1468.8 Q1810.86 1469.47 1807.76 1472.69 Q1804.66 1475.88 1799.01 1481.64 Z" fill="#000000" fill-rule="evenodd" fill-opacity="1" /><path clip-path="url(#clip770)" d="M1835.14 1454.1 Q1831.53 1454.1 1829.7 1457.66 Q1827.9 1461.2 1827.9 1468.33 Q1827.9 1475.44 1829.7 1479.01 Q1831.53 1482.55 1835.14 1482.55 Q1838.78 1482.55 1840.58 1479.01 Q1842.41 1475.44 1842.41 1468.33 Q1842.41 1461.2 1840.58 1457.66 Q1838.78 1454.1 1835.14 1454.1 M1835.14 1450.39 Q1840.95 1450.39 1844.01 1455 Q1847.09 1459.58 1847.09 1468.33 Q1847.09 1477.06 1844.01 1481.67 Q1840.95 1486.25 1835.14 1486.25 Q1829.33 1486.25 1826.25 1481.67 Q1823.2 1477.06 1823.2 1468.33 Q1823.2 1459.58 1826.25 1455 Q1829.33 1450.39 1835.14 1450.39 Z" fill="#000000" fill-rule="evenodd" fill-opacity="1" /><path clip-path="url(#clip770)" d="M2178.39 1454.1 Q2174.77 1454.1 2172.95 1457.66 Q2171.14 1461.2 2171.14 1468.33 Q2171.14 1475.44 2172.95 1479.01 Q2174.77 1482.55 2178.39 1482.55 Q2182.02 1482.55 2183.83 1479.01 Q2185.65 1475.44 2185.65 1468.33 Q2185.65 1461.2 2183.83 1457.66 Q2182.02 1454.1 2178.39 1454.1 M2178.39 1450.39 Q2184.2 1450.39 2187.25 1455 Q2190.33 1459.58 2190.33 1468.33 Q2190.33 1477.06 2187.25 1481.67 Q2184.2 1486.25 2178.39 1486.25 Q2172.58 1486.25 2169.5 1481.67 Q2166.44 1477.06 2166.44 1468.33 Q2166.44 1459.58 2169.5 1455 Q2172.58 1450.39 2178.39 1450.39 Z" fill="#000000" fill-rule="evenodd" fill-opacity="1" /><path clip-path="url(#clip770)" d="M2198.55 1479.7 L2203.43 1479.7 L2203.43 1485.58 L2198.55 1485.58 L2198.55 1479.7 Z" fill="#000000" fill-rule="evenodd" fill-opacity="1" /><path clip-path="url(#clip770)" d="M2217.64 1481.64 L2233.96 1481.64 L2233.96 1485.58 L2212.02 1485.58 L2212.02 1481.64 Q2214.68 1478.89 2219.26 1474.26 Q2223.87 1469.61 2225.05 1468.27 Q2227.3 1465.74 2228.18 1464.01 Q2229.08 1462.25 2229.08 1460.56 Q2229.08 1457.8 2227.14 1456.07 Q2225.21 1454.33 2222.11 1454.33 Q2219.91 1454.33 2217.46 1455.09 Q2215.03 1455.86 2212.25 1457.41 L2212.25 1452.69 Q2215.07 1451.55 2217.53 1450.97 Q2219.98 1450.39 2222.02 1450.39 Q2227.39 1450.39 2230.58 1453.08 Q2233.78 1455.77 2233.78 1460.26 Q2233.78 1462.39 2232.97 1464.31 Q2232.18 1466.2 2230.07 1468.8 Q2229.5 1469.47 2226.39 1472.69 Q2223.29 1475.88 2217.64 1481.64 Z" fill="#000000" fill-rule="evenodd" fill-opacity="1" /><path clip-path="url(#clip770)" d="M2243.82 1451.02 L2262.18 1451.02 L2262.18 1454.96 L2248.11 1454.96 L2248.11 1463.43 Q2249.13 1463.08 2250.14 1462.92 Q2251.16 1462.73 2252.18 1462.73 Q2257.97 1462.73 2261.35 1465.9 Q2264.73 1469.08 2264.73 1474.49 Q2264.73 1480.07 2261.26 1483.17 Q2257.78 1486.25 2251.46 1486.25 Q2249.29 1486.25 2247.02 1485.88 Q2244.77 1485.51 2242.37 1484.77 L2242.37 1480.07 Q2244.45 1481.2 2246.67 1481.76 Q2248.89 1482.32 2251.37 1482.32 Q2255.38 1482.32 2257.71 1480.21 Q2260.05 1478.1 2260.05 1474.49 Q2260.05 1470.88 2257.71 1468.77 Q2255.38 1466.67 2251.37 1466.67 Q2249.5 1466.67 2247.62 1467.08 Q2245.77 1467.5 2243.82 1468.38 L2243.82 1451.02 Z" fill="#000000" fill-rule="evenodd" fill-opacity="1" /><path clip-path="url(#clip770)" d="M1027.53 1532.4 L1033.39 1532.4 L1040.71 1560.21 L1048 1532.4 L1054.9 1532.4 L1062.22 1560.21 L1069.51 1532.4 L1075.37 1532.4 L1066.04 1568.04 L1059.14 1568.04 L1051.47 1538.83 L1043.76 1568.04 L1036.86 1568.04 L1027.53 1532.4 Z" fill="#000000" fill-rule="evenodd" fill-opacity="1" /><path clip-path="url(#clip770)" d="M1100.45 1550.12 Q1093.35 1550.12 1090.61 1551.75 Q1087.88 1553.37 1087.88 1557.29 Q1087.88 1560.4 1089.91 1562.25 Q1091.98 1564.07 1095.52 1564.07 Q1100.39 1564.07 1103.31 1560.63 Q1106.27 1557.16 1106.27 1551.43 L1106.27 1550.12 L1100.45 1550.12 M1112.13 1547.71 L1112.13 1568.04 L1106.27 1568.04 L1106.27 1562.63 Q1104.27 1565.88 1101.28 1567.44 Q1098.29 1568.97 1093.96 1568.97 Q1088.48 1568.97 1085.24 1565.91 Q1082.02 1562.82 1082.02 1557.67 Q1082.02 1551.65 1086.03 1548.6 Q1090.07 1545.54 1098.06 1545.54 L1106.27 1545.54 L1106.27 1544.97 Q1106.27 1540.93 1103.6 1538.73 Q1100.96 1536.5 1096.15 1536.5 Q1093.1 1536.5 1090.2 1537.23 Q1087.3 1537.97 1084.63 1539.43 L1084.63 1534.02 Q1087.85 1532.78 1090.87 1532.17 Q1093.89 1531.54 1096.76 1531.54 Q1104.49 1531.54 1108.31 1535.55 Q1112.13 1539.56 1112.13 1547.71 Z" fill="#000000" fill-rule="evenodd" fill-opacity="1" /><path clip-path="url(#clip770)" d="M1119.99 1532.4 L1126.2 1532.4 L1137.34 1562.31 L1148.48 1532.4 L1154.69 1532.4 L1141.32 1568.04 L1133.36 1568.04 L1119.99 1532.4 Z" fill="#000000" fill-rule="evenodd" fill-opacity="1" /><path clip-path="url(#clip770)" d="M1193.26 1548.76 L1193.26 1551.62 L1166.33 1551.62 Q1166.72 1557.67 1169.96 1560.85 Q1173.24 1564 1179.07 1564 Q1182.44 1564 1185.59 1563.17 Q1188.77 1562.35 1191.89 1560.69 L1191.89 1566.23 Q1188.74 1567.57 1185.43 1568.27 Q1182.12 1568.97 1178.72 1568.97 Q1170.19 1568.97 1165.19 1564 Q1160.22 1559.04 1160.22 1550.57 Q1160.22 1541.82 1164.93 1536.69 Q1169.68 1531.54 1177.7 1531.54 Q1184.89 1531.54 1189.06 1536.18 Q1193.26 1540.8 1193.26 1548.76 M1187.41 1547.04 Q1187.34 1542.23 1184.7 1539.37 Q1182.09 1536.5 1177.76 1536.5 Q1172.86 1536.5 1169.9 1539.27 Q1166.97 1542.04 1166.53 1547.07 L1187.41 1547.04 Z" fill="#000000" fill-rule="evenodd" fill-opacity="1" /><path clip-path="url(#clip770)" d="M1253.23 1546.53 L1253.23 1568.04 L1247.37 1568.04 L1247.37 1546.72 Q1247.37 1541.66 1245.4 1539.14 Q1243.42 1536.63 1239.48 1536.63 Q1234.73 1536.63 1232 1539.65 Q1229.26 1542.68 1229.26 1547.9 L1229.26 1568.04 L1223.37 1568.04 L1223.37 1532.4 L1229.26 1532.4 L1229.26 1537.93 Q1231.36 1534.72 1234.19 1533.13 Q1237.06 1531.54 1240.78 1531.54 Q1246.92 1531.54 1250.08 1535.36 Q1253.23 1539.14 1253.23 1546.53 Z" fill="#000000" fill-rule="evenodd" fill-opacity="1" /><path clip-path="url(#clip770)" d="M1264.3 1553.98 L1264.3 1532.4 L1270.16 1532.4 L1270.16 1553.75 Q1270.16 1558.81 1272.13 1561.36 Q1274.11 1563.87 1278.05 1563.87 Q1282.8 1563.87 1285.53 1560.85 Q1288.3 1557.83 1288.3 1552.61 L1288.3 1532.4 L1294.16 1532.4 L1294.16 1568.04 L1288.3 1568.04 L1288.3 1562.57 Q1286.17 1565.82 1283.34 1567.41 Q1280.54 1568.97 1276.81 1568.97 Q1270.67 1568.97 1267.49 1565.15 Q1264.3 1561.33 1264.3 1553.98 M1279.04 1531.54 L1279.04 1531.54 Z" fill="#000000" fill-rule="evenodd" fill-opacity="1" /><path clip-path="url(#clip770)" d="M1333.98 1539.24 Q1336.17 1535.29 1339.23 1533.41 Q1342.28 1531.54 1346.42 1531.54 Q1351.99 1531.54 1355.01 1535.45 Q1358.04 1539.33 1358.04 1546.53 L1358.04 1568.04 L1352.15 1568.04 L1352.15 1546.72 Q1352.15 1541.59 1350.34 1539.11 Q1348.52 1536.63 1344.8 1536.63 Q1340.25 1536.63 1337.6 1539.65 Q1334.96 1542.68 1334.96 1547.9 L1334.96 1568.04 L1329.07 1568.04 L1329.07 1546.72 Q1329.07 1541.56 1327.26 1539.11 Q1325.45 1536.63 1321.66 1536.63 Q1317.17 1536.63 1314.53 1539.68 Q1311.89 1542.71 1311.89 1547.9 L1311.89 1568.04 L1306 1568.04 L1306 1532.4 L1311.89 1532.4 L1311.89 1537.93 Q1313.89 1534.66 1316.69 1533.1 Q1319.49 1531.54 1323.35 1531.54 Q1327.23 1531.54 1329.93 1533.51 Q1332.67 1535.48 1333.98 1539.24 Z" fill="#000000" fill-rule="evenodd" fill-opacity="1" /><path clip-path="url(#clip770)" d="M1395.31 1550.25 Q1395.31 1543.79 1392.64 1540.13 Q1389.99 1536.44 1385.35 1536.44 Q1380.7 1536.44 1378.03 1540.13 Q1375.38 1543.79 1375.38 1550.25 Q1375.38 1556.71 1378.03 1560.4 Q1380.7 1564.07 1385.35 1564.07 Q1389.99 1564.07 1392.64 1560.4 Q1395.31 1556.71 1395.31 1550.25 M1375.38 1537.81 Q1377.23 1534.62 1380.03 1533.1 Q1382.86 1531.54 1386.78 1531.54 Q1393.27 1531.54 1397.31 1536.69 Q1401.39 1541.85 1401.39 1550.25 Q1401.39 1558.65 1397.31 1563.81 Q1393.27 1568.97 1386.78 1568.97 Q1382.86 1568.97 1380.03 1567.44 Q1377.23 1565.88 1375.38 1562.7 L1375.38 1568.04 L1369.5 1568.04 L1369.5 1518.52 L1375.38 1518.52 L1375.38 1537.81 Z" fill="#000000" fill-rule="evenodd" fill-opacity="1" /><path clip-path="url(#clip770)" d="M1441.59 1548.76 L1441.59 1551.62 L1414.66 1551.62 Q1415.04 1557.67 1418.29 1560.85 Q1421.57 1564 1427.39 1564 Q1430.77 1564 1433.92 1563.17 Q1437.1 1562.35 1440.22 1560.69 L1440.22 1566.23 Q1437.07 1567.57 1433.76 1568.27 Q1430.45 1568.97 1427.04 1568.97 Q1418.51 1568.97 1413.52 1564 Q1408.55 1559.04 1408.55 1550.57 Q1408.55 1541.82 1413.26 1536.69 Q1418 1531.54 1426.02 1531.54 Q1433.22 1531.54 1437.39 1536.18 Q1441.59 1540.8 1441.59 1548.76 M1435.73 1547.04 Q1435.67 1542.23 1433.03 1539.37 Q1430.42 1536.5 1426.09 1536.5 Q1421.19 1536.5 1418.23 1539.27 Q1415.3 1542.04 1414.85 1547.07 L1435.73 1547.04 Z" fill="#000000" fill-rule="evenodd" fill-opacity="1" /><path clip-path="url(#clip770)" d="M1471.86 1537.87 Q1470.87 1537.3 1469.69 1537.04 Q1468.55 1536.76 1467.15 1536.76 Q1462.18 1536.76 1459.51 1540 Q1456.87 1543.22 1456.87 1549.27 L1456.87 1568.04 L1450.98 1568.04 L1450.98 1532.4 L1456.87 1532.4 L1456.87 1537.93 Q1458.71 1534.69 1461.67 1533.13 Q1464.63 1531.54 1468.87 1531.54 Q1469.47 1531.54 1470.2 1531.63 Q1470.93 1531.7 1471.83 1531.85 L1471.86 1537.87 Z" fill="#000000" fill-rule="evenodd" fill-opacity="1" /><path clip-path="url(#clip770)" d="M1498.18 1518.52 L1511.67 1518.52 L1511.67 1523.07 L1504.04 1523.07 L1504.04 1572.09 L1511.67 1572.09 L1511.67 1576.64 L1498.18 1576.64 L1498.18 1518.52 Z" fill="#000000" fill-rule="evenodd" fill-opacity="1" /><path clip-path="url(#clip770)" d="M1551.91 1539.24 Q1554.1 1535.29 1557.16 1533.41 Q1560.21 1531.54 1564.35 1531.54 Q1569.92 1531.54 1572.94 1535.45 Q1575.97 1539.33 1575.97 1546.53 L1575.97 1568.04 L1570.08 1568.04 L1570.08 1546.72 Q1570.08 1541.59 1568.27 1539.11 Q1566.45 1536.63 1562.73 1536.63 Q1558.18 1536.63 1555.53 1539.65 Q1552.89 1542.68 1552.89 1547.9 L1552.89 1568.04 L1547 1568.04 L1547 1546.72 Q1547 1541.56 1545.19 1539.11 Q1543.38 1536.63 1539.59 1536.63 Q1535.1 1536.63 1532.46 1539.68 Q1529.82 1542.71 1529.82 1547.9 L1529.82 1568.04 L1523.93 1568.04 L1523.93 1532.4 L1529.82 1532.4 L1529.82 1537.93 Q1531.82 1534.66 1534.62 1533.1 Q1537.42 1531.54 1541.27 1531.54 Q1545.16 1531.54 1547.86 1533.51 Q1550.6 1535.48 1551.91 1539.24 Z" fill="#000000" fill-rule="evenodd" fill-opacity="1" /><path clip-path="url(#clip770)" d="M1615.4 1539.24 Q1617.6 1535.29 1620.66 1533.41 Q1623.71 1531.54 1627.85 1531.54 Q1633.42 1531.54 1636.44 1535.45 Q1639.47 1539.33 1639.47 1546.53 L1639.47 1568.04 L1633.58 1568.04 L1633.58 1546.72 Q1633.58 1541.59 1631.76 1539.11 Q1629.95 1536.63 1626.23 1536.63 Q1621.67 1536.63 1619.03 1539.65 Q1616.39 1542.68 1616.39 1547.9 L1616.39 1568.04 L1610.5 1568.04 L1610.5 1546.72 Q1610.5 1541.56 1608.69 1539.11 Q1606.87 1536.63 1603.09 1536.63 Q1598.6 1536.63 1595.96 1539.68 Q1593.31 1542.71 1593.31 1547.9 L1593.31 1568.04 L1587.43 1568.04 L1587.43 1532.4 L1593.31 1532.4 L1593.31 1537.93 Q1595.32 1534.66 1598.12 1533.1 Q1600.92 1531.54 1604.77 1531.54 Q1608.66 1531.54 1611.36 1533.51 Q1614.1 1535.48 1615.4 1539.24 Z" fill="#000000" fill-rule="evenodd" fill-opacity="1" /><path clip-path="url(#clip770)" d="M1664.83 1518.52 L1664.83 1576.64 L1651.34 1576.64 L1651.34 1572.09 L1658.95 1572.09 L1658.95 1523.07 L1651.34 1523.07 L1651.34 1518.52 L1664.83 1518.52 Z" fill="#000000" fill-rule="evenodd" fill-opacity="1" /><polyline clip-path="url(#clip772)" style="stroke:#000000; stroke-linecap:round; stroke-linejoin:round; stroke-width:2; stroke-opacity:0.1; fill:none" points="
  339.608,1386.4 2352.76,1386.4 
  "/>
<polyline clip-path="url(#clip772)" style="stroke:#000000; stroke-linecap:round; stroke-linejoin:round; stroke-width:2; stroke-opacity:0.1; fill:none" points="
  339.608,1141.17 2352.76,1141.17 
  "/>
<polyline clip-path="url(#clip772)" style="stroke:#000000; stroke-linecap:round; stroke-linejoin:round; stroke-width:2; stroke-opacity:0.1; fill:none" points="
  339.608,895.94 2352.76,895.94 
  "/>
<polyline clip-path="url(#clip772)" style="stroke:#000000; stroke-linecap:round; stroke-linejoin:round; stroke-width:2; stroke-opacity:0.1; fill:none" points="
  339.608,650.712 2352.76,650.712 
  "/>
<polyline clip-path="url(#clip772)" style="stroke:#000000; stroke-linecap:round; stroke-linejoin:round; stroke-width:2; stroke-opacity:0.1; fill:none" points="
  339.608,405.484 2352.76,405.484 
  "/>
<polyline clip-path="url(#clip772)" style="stroke:#000000; stroke-linecap:round; stroke-linejoin:round; stroke-width:2; stroke-opacity:0.1; fill:none" points="
  339.608,160.256 2352.76,160.256 
  "/>
<polyline clip-path="url(#clip770)" style="stroke:#000000; stroke-linecap:round; stroke-linejoin:round; stroke-width:4; stroke-opacity:1; fill:none" points="
  339.608,1423.18 339.608,123.472 
  "/>
<polyline clip-path="url(#clip770)" style="stroke:#000000; stroke-linecap:round; stroke-linejoin:round; stroke-width:4; stroke-opacity:1; fill:none" points="
  339.608,1386.4 358.506,1386.4 
  "/>
<polyline clip-path="url(#clip770)" style="stroke:#000000; stroke-linecap:round; stroke-linejoin:round; stroke-width:4; stroke-opacity:1; fill:none" points="
  339.608,1141.17 358.506,1141.17 
  "/>
<polyline clip-path="url(#clip770)" style="stroke:#000000; stroke-linecap:round; stroke-linejoin:round; stroke-width:4; stroke-opacity:1; fill:none" points="
  339.608,895.94 358.506,895.94 
  "/>
<polyline clip-path="url(#clip770)" style="stroke:#000000; stroke-linecap:round; stroke-linejoin:round; stroke-width:4; stroke-opacity:1; fill:none" points="
  339.608,650.712 358.506,650.712 
  "/>
<polyline clip-path="url(#clip770)" style="stroke:#000000; stroke-linecap:round; stroke-linejoin:round; stroke-width:4; stroke-opacity:1; fill:none" points="
  339.608,405.484 358.506,405.484 
  "/>
<polyline clip-path="url(#clip770)" style="stroke:#000000; stroke-linecap:round; stroke-linejoin:round; stroke-width:4; stroke-opacity:1; fill:none" points="
  339.608,160.256 358.506,160.256 
  "/>
<path clip-path="url(#clip770)" d="M131.181 1391.49 Q134.538 1392.21 136.413 1394.48 Q138.311 1396.74 138.311 1400.08 Q138.311 1405.19 134.792 1407.99 Q131.274 1410.79 124.793 1410.79 Q122.617 1410.79 120.302 1410.35 Q118.01 1409.94 115.556 1409.08 L115.556 1404.57 Q117.501 1405.7 119.816 1406.28 Q122.13 1406.86 124.654 1406.86 Q129.052 1406.86 131.343 1405.12 Q133.658 1403.39 133.658 1400.08 Q133.658 1397.02 131.505 1395.31 Q129.376 1393.57 125.556 1393.57 L121.529 1393.57 L121.529 1389.73 L125.742 1389.73 Q129.191 1389.73 131.019 1388.36 Q132.848 1386.98 132.848 1384.38 Q132.848 1381.72 130.95 1380.31 Q129.075 1378.87 125.556 1378.87 Q123.635 1378.87 121.436 1379.29 Q119.237 1379.71 116.598 1380.59 L116.598 1376.42 Q119.26 1375.68 121.575 1375.31 Q123.913 1374.94 125.973 1374.94 Q131.297 1374.94 134.399 1377.37 Q137.501 1379.78 137.501 1383.9 Q137.501 1386.77 135.857 1388.76 Q134.214 1390.73 131.181 1391.49 Z" fill="#000000" fill-rule="evenodd" fill-opacity="1" /><path clip-path="url(#clip770)" d="M147.177 1404.24 L152.061 1404.24 L152.061 1410.12 L147.177 1410.12 L147.177 1404.24 Z" fill="#000000" fill-rule="evenodd" fill-opacity="1" /><path clip-path="url(#clip770)" d="M172.246 1378.64 Q168.635 1378.64 166.806 1382.21 Q165.001 1385.75 165.001 1392.88 Q165.001 1399.98 166.806 1403.55 Q168.635 1407.09 172.246 1407.09 Q175.88 1407.09 177.686 1403.55 Q179.514 1399.98 179.514 1392.88 Q179.514 1385.75 177.686 1382.21 Q175.88 1378.64 172.246 1378.64 M172.246 1374.94 Q178.056 1374.94 181.112 1379.54 Q184.19 1384.13 184.19 1392.88 Q184.19 1401.6 181.112 1406.21 Q178.056 1410.79 172.246 1410.79 Q166.436 1410.79 163.357 1406.21 Q160.302 1401.6 160.302 1392.88 Q160.302 1384.13 163.357 1379.54 Q166.436 1374.94 172.246 1374.94 Z" fill="#000000" fill-rule="evenodd" fill-opacity="1" /><path clip-path="url(#clip770)" d="M220.579 1384.66 L210 1395.29 L220.579 1405.86 L217.824 1408.66 L207.199 1398.04 L196.575 1408.66 L193.843 1405.86 L204.399 1395.29 L193.843 1384.66 L196.575 1381.86 L207.199 1392.48 L217.824 1381.86 L220.579 1384.66 Z" fill="#000000" fill-rule="evenodd" fill-opacity="1" /><path clip-path="url(#clip770)" d="M232.94 1406.19 L240.579 1406.19 L240.579 1379.82 L232.269 1381.49 L232.269 1377.23 L240.533 1375.56 L245.209 1375.56 L245.209 1406.19 L252.847 1406.19 L252.847 1410.12 L232.94 1410.12 L232.94 1406.19 Z" fill="#000000" fill-rule="evenodd" fill-opacity="1" /><path clip-path="url(#clip770)" d="M272.292 1378.64 Q268.681 1378.64 266.852 1382.21 Q265.046 1385.75 265.046 1392.88 Q265.046 1399.98 266.852 1403.55 Q268.681 1407.09 272.292 1407.09 Q275.926 1407.09 277.732 1403.55 Q279.56 1399.98 279.56 1392.88 Q279.56 1385.75 277.732 1382.21 Q275.926 1378.64 272.292 1378.64 M272.292 1374.94 Q278.102 1374.94 281.157 1379.54 Q284.236 1384.13 284.236 1392.88 Q284.236 1401.6 281.157 1406.21 Q278.102 1410.79 272.292 1410.79 Q266.482 1410.79 263.403 1406.21 Q260.347 1401.6 260.347 1392.88 Q260.347 1384.13 263.403 1379.54 Q266.482 1374.94 272.292 1374.94 Z" fill="#000000" fill-rule="evenodd" fill-opacity="1" /><path clip-path="url(#clip770)" d="M286.042 1382.13 L286.042 1378.67 Q287.471 1379.35 288.938 1379.7 Q290.405 1380.06 291.816 1380.06 Q295.577 1380.06 297.552 1377.54 Q299.546 1375 299.828 1369.85 Q298.737 1371.47 297.063 1372.33 Q295.389 1373.2 293.358 1373.2 Q289.145 1373.2 286.681 1370.66 Q284.236 1368.1 284.236 1363.68 Q284.236 1359.35 286.794 1356.74 Q289.352 1354.13 293.602 1354.13 Q298.474 1354.13 301.031 1357.87 Q303.608 1361.59 303.608 1368.7 Q303.608 1375.34 300.448 1379.31 Q297.307 1383.26 291.985 1383.26 Q290.556 1383.26 289.089 1382.98 Q287.621 1382.69 286.042 1382.13 M293.602 1370.22 Q296.16 1370.22 297.646 1368.48 Q299.151 1366.73 299.151 1363.68 Q299.151 1360.65 297.646 1358.9 Q296.16 1357.13 293.602 1357.13 Q291.045 1357.13 289.54 1358.9 Q288.054 1360.65 288.054 1363.68 Q288.054 1366.73 289.54 1368.48 Q291.045 1370.22 293.602 1370.22 Z" fill="#000000" fill-rule="evenodd" fill-opacity="1" /><path clip-path="url(#clip770)" d="M129.862 1134.41 L118.056 1152.86 L129.862 1152.86 L129.862 1134.41 M128.635 1130.34 L134.515 1130.34 L134.515 1152.86 L139.445 1152.86 L139.445 1156.75 L134.515 1156.75 L134.515 1164.9 L129.862 1164.9 L129.862 1156.75 L114.26 1156.75 L114.26 1152.23 L128.635 1130.34 Z" fill="#000000" fill-rule="evenodd" fill-opacity="1" /><path clip-path="url(#clip770)" d="M147.177 1159.02 L152.061 1159.02 L152.061 1164.9 L147.177 1164.9 L147.177 1159.02 Z" fill="#000000" fill-rule="evenodd" fill-opacity="1" /><path clip-path="url(#clip770)" d="M172.246 1133.41 Q168.635 1133.41 166.806 1136.98 Q165.001 1140.52 165.001 1147.65 Q165.001 1154.76 166.806 1158.32 Q168.635 1161.86 172.246 1161.86 Q175.88 1161.86 177.686 1158.32 Q179.514 1154.76 179.514 1147.65 Q179.514 1140.52 177.686 1136.98 Q175.88 1133.41 172.246 1133.41 M172.246 1129.71 Q178.056 1129.71 181.112 1134.32 Q184.19 1138.9 184.19 1147.65 Q184.19 1156.38 181.112 1160.98 Q178.056 1165.57 172.246 1165.57 Q166.436 1165.57 163.357 1160.98 Q160.302 1156.38 160.302 1147.65 Q160.302 1138.9 163.357 1134.32 Q166.436 1129.71 172.246 1129.71 Z" fill="#000000" fill-rule="evenodd" fill-opacity="1" /><path clip-path="url(#clip770)" d="M220.579 1139.43 L210 1150.06 L220.579 1160.64 L217.824 1163.44 L207.199 1152.81 L196.575 1163.44 L193.843 1160.64 L204.399 1150.06 L193.843 1139.43 L196.575 1136.63 L207.199 1147.26 L217.824 1136.63 L220.579 1139.43 Z" fill="#000000" fill-rule="evenodd" fill-opacity="1" /><path clip-path="url(#clip770)" d="M232.94 1160.96 L240.579 1160.96 L240.579 1134.59 L232.269 1136.26 L232.269 1132 L240.533 1130.34 L245.209 1130.34 L245.209 1160.96 L252.847 1160.96 L252.847 1164.9 L232.94 1164.9 L232.94 1160.96 Z" fill="#000000" fill-rule="evenodd" fill-opacity="1" /><path clip-path="url(#clip770)" d="M272.292 1133.41 Q268.681 1133.41 266.852 1136.98 Q265.046 1140.52 265.046 1147.65 Q265.046 1154.76 266.852 1158.32 Q268.681 1161.86 272.292 1161.86 Q275.926 1161.86 277.732 1158.32 Q279.56 1154.76 279.56 1147.65 Q279.56 1140.52 277.732 1136.98 Q275.926 1133.41 272.292 1133.41 M272.292 1129.71 Q278.102 1129.71 281.157 1134.32 Q284.236 1138.9 284.236 1147.65 Q284.236 1156.38 281.157 1160.98 Q278.102 1165.57 272.292 1165.57 Q266.482 1165.57 263.403 1160.98 Q260.347 1156.38 260.347 1147.65 Q260.347 1138.9 263.403 1134.32 Q266.482 1129.71 272.292 1129.71 Z" fill="#000000" fill-rule="evenodd" fill-opacity="1" /><path clip-path="url(#clip770)" d="M286.042 1136.9 L286.042 1133.44 Q287.471 1134.12 288.938 1134.48 Q290.405 1134.83 291.816 1134.83 Q295.577 1134.83 297.552 1132.31 Q299.546 1129.77 299.828 1124.62 Q298.737 1126.24 297.063 1127.1 Q295.389 1127.97 293.358 1127.97 Q289.145 1127.97 286.681 1125.43 Q284.236 1122.87 284.236 1118.45 Q284.236 1114.13 286.794 1111.51 Q289.352 1108.9 293.602 1108.9 Q298.474 1108.9 301.031 1112.64 Q303.608 1116.36 303.608 1123.47 Q303.608 1130.11 300.448 1134.08 Q297.307 1138.03 291.985 1138.03 Q290.556 1138.03 289.089 1137.75 Q287.621 1137.47 286.042 1136.9 M293.602 1125 Q296.16 1125 297.646 1123.25 Q299.151 1121.5 299.151 1118.45 Q299.151 1115.42 297.646 1113.67 Q296.16 1111.91 293.602 1111.91 Q291.045 1111.91 289.54 1113.67 Q288.054 1115.42 288.054 1118.45 Q288.054 1121.5 289.54 1123.25 Q291.045 1125 293.602 1125 Z" fill="#000000" fill-rule="evenodd" fill-opacity="1" /><path clip-path="url(#clip770)" d="M117.061 885.108 L135.417 885.108 L135.417 889.043 L121.343 889.043 L121.343 897.515 Q122.362 897.168 123.38 897.006 Q124.399 896.82 125.418 896.82 Q131.205 896.82 134.584 899.992 Q137.964 903.163 137.964 908.58 Q137.964 914.158 134.492 917.26 Q131.019 920.339 124.7 920.339 Q122.524 920.339 120.255 919.968 Q118.01 919.598 115.603 918.857 L115.603 914.158 Q117.686 915.293 119.908 915.848 Q122.13 916.404 124.607 916.404 Q128.612 916.404 130.95 914.297 Q133.288 912.191 133.288 908.58 Q133.288 904.969 130.95 902.862 Q128.612 900.756 124.607 900.756 Q122.732 900.756 120.857 901.172 Q119.006 901.589 117.061 902.469 L117.061 885.108 Z" fill="#000000" fill-rule="evenodd" fill-opacity="1" /><path clip-path="url(#clip770)" d="M147.177 913.788 L152.061 913.788 L152.061 919.668 L147.177 919.668 L147.177 913.788 Z" fill="#000000" fill-rule="evenodd" fill-opacity="1" /><path clip-path="url(#clip770)" d="M172.246 888.186 Q168.635 888.186 166.806 891.751 Q165.001 895.293 165.001 902.422 Q165.001 909.529 166.806 913.093 Q168.635 916.635 172.246 916.635 Q175.88 916.635 177.686 913.093 Q179.514 909.529 179.514 902.422 Q179.514 895.293 177.686 891.751 Q175.88 888.186 172.246 888.186 M172.246 884.483 Q178.056 884.483 181.112 889.089 Q184.19 893.672 184.19 902.422 Q184.19 911.149 181.112 915.756 Q178.056 920.339 172.246 920.339 Q166.436 920.339 163.357 915.756 Q160.302 911.149 160.302 902.422 Q160.302 893.672 163.357 889.089 Q166.436 884.483 172.246 884.483 Z" fill="#000000" fill-rule="evenodd" fill-opacity="1" /><path clip-path="url(#clip770)" d="M220.579 894.205 L210 904.83 L220.579 915.408 L217.824 918.209 L207.199 907.584 L196.575 918.209 L193.843 915.408 L204.399 904.83 L193.843 894.205 L196.575 891.404 L207.199 902.029 L217.824 891.404 L220.579 894.205 Z" fill="#000000" fill-rule="evenodd" fill-opacity="1" /><path clip-path="url(#clip770)" d="M232.94 915.732 L240.579 915.732 L240.579 889.367 L232.269 891.033 L232.269 886.774 L240.533 885.108 L245.209 885.108 L245.209 915.732 L252.847 915.732 L252.847 919.668 L232.94 919.668 L232.94 915.732 Z" fill="#000000" fill-rule="evenodd" fill-opacity="1" /><path clip-path="url(#clip770)" d="M272.292 888.186 Q268.681 888.186 266.852 891.751 Q265.046 895.293 265.046 902.422 Q265.046 909.529 266.852 913.093 Q268.681 916.635 272.292 916.635 Q275.926 916.635 277.732 913.093 Q279.56 909.529 279.56 902.422 Q279.56 895.293 277.732 891.751 Q275.926 888.186 272.292 888.186 M272.292 884.483 Q278.102 884.483 281.157 889.089 Q284.236 893.672 284.236 902.422 Q284.236 911.149 281.157 915.756 Q278.102 920.339 272.292 920.339 Q266.482 920.339 263.403 915.756 Q260.347 911.149 260.347 902.422 Q260.347 893.672 263.403 889.089 Q266.482 884.483 272.292 884.483 Z" fill="#000000" fill-rule="evenodd" fill-opacity="1" /><path clip-path="url(#clip770)" d="M286.042 891.674 L286.042 888.213 Q287.471 888.891 288.938 889.248 Q290.405 889.605 291.816 889.605 Q295.577 889.605 297.552 887.085 Q299.546 884.546 299.828 879.393 Q298.737 881.01 297.063 881.875 Q295.389 882.74 293.358 882.74 Q289.145 882.74 286.681 880.201 Q284.236 877.643 284.236 873.224 Q284.236 868.898 286.794 866.284 Q289.352 863.669 293.602 863.669 Q298.474 863.669 301.031 867.412 Q303.608 871.136 303.608 878.245 Q303.608 884.884 300.448 888.853 Q297.307 892.803 291.985 892.803 Q290.556 892.803 289.089 892.52 Q287.621 892.238 286.042 891.674 M293.602 879.769 Q296.16 879.769 297.646 878.02 Q299.151 876.271 299.151 873.224 Q299.151 870.196 297.646 868.446 Q296.16 866.679 293.602 866.679 Q291.045 866.679 289.54 868.446 Q288.054 870.196 288.054 873.224 Q288.054 876.271 289.54 878.02 Q291.045 879.769 293.602 879.769 Z" fill="#000000" fill-rule="evenodd" fill-opacity="1" /><path clip-path="url(#clip770)" d="M127.593 655.296 Q124.445 655.296 122.593 657.449 Q120.765 659.602 120.765 663.352 Q120.765 667.079 122.593 669.254 Q124.445 671.407 127.593 671.407 Q130.742 671.407 132.57 669.254 Q134.422 667.079 134.422 663.352 Q134.422 659.602 132.57 657.449 Q130.742 655.296 127.593 655.296 M136.876 640.644 L136.876 644.903 Q135.117 644.069 133.311 643.63 Q131.529 643.19 129.769 643.19 Q125.14 643.19 122.686 646.315 Q120.255 649.44 119.908 655.759 Q121.274 653.745 123.334 652.681 Q125.394 651.593 127.871 651.593 Q133.08 651.593 136.089 654.764 Q139.121 657.912 139.121 663.352 Q139.121 668.676 135.973 671.893 Q132.825 675.111 127.593 675.111 Q121.598 675.111 118.427 670.528 Q115.256 665.921 115.256 657.194 Q115.256 649 119.144 644.139 Q123.033 639.255 129.584 639.255 Q131.343 639.255 133.126 639.602 Q134.931 639.949 136.876 640.644 Z" fill="#000000" fill-rule="evenodd" fill-opacity="1" /><path clip-path="url(#clip770)" d="M147.177 668.56 L152.061 668.56 L152.061 674.44 L147.177 674.44 L147.177 668.56 Z" fill="#000000" fill-rule="evenodd" fill-opacity="1" /><path clip-path="url(#clip770)" d="M172.246 642.958 Q168.635 642.958 166.806 646.523 Q165.001 650.065 165.001 657.194 Q165.001 664.301 166.806 667.866 Q168.635 671.407 172.246 671.407 Q175.88 671.407 177.686 667.866 Q179.514 664.301 179.514 657.194 Q179.514 650.065 177.686 646.523 Q175.88 642.958 172.246 642.958 M172.246 639.255 Q178.056 639.255 181.112 643.861 Q184.19 648.444 184.19 657.194 Q184.19 665.921 181.112 670.528 Q178.056 675.111 172.246 675.111 Q166.436 675.111 163.357 670.528 Q160.302 665.921 160.302 657.194 Q160.302 648.444 163.357 643.861 Q166.436 639.255 172.246 639.255 Z" fill="#000000" fill-rule="evenodd" fill-opacity="1" /><path clip-path="url(#clip770)" d="M220.579 648.977 L210 659.602 L220.579 670.18 L217.824 672.981 L207.199 662.356 L196.575 672.981 L193.843 670.18 L204.399 659.602 L193.843 648.977 L196.575 646.176 L207.199 656.801 L217.824 646.176 L220.579 648.977 Z" fill="#000000" fill-rule="evenodd" fill-opacity="1" /><path clip-path="url(#clip770)" d="M232.94 670.504 L240.579 670.504 L240.579 644.139 L232.269 645.806 L232.269 641.546 L240.533 639.88 L245.209 639.88 L245.209 670.504 L252.847 670.504 L252.847 674.44 L232.94 674.44 L232.94 670.504 Z" fill="#000000" fill-rule="evenodd" fill-opacity="1" /><path clip-path="url(#clip770)" d="M272.292 642.958 Q268.681 642.958 266.852 646.523 Q265.046 650.065 265.046 657.194 Q265.046 664.301 266.852 667.866 Q268.681 671.407 272.292 671.407 Q275.926 671.407 277.732 667.866 Q279.56 664.301 279.56 657.194 Q279.56 650.065 277.732 646.523 Q275.926 642.958 272.292 642.958 M272.292 639.255 Q278.102 639.255 281.157 643.861 Q284.236 648.444 284.236 657.194 Q284.236 665.921 281.157 670.528 Q278.102 675.111 272.292 675.111 Q266.482 675.111 263.403 670.528 Q260.347 665.921 260.347 657.194 Q260.347 648.444 263.403 643.861 Q266.482 639.255 272.292 639.255 Z" fill="#000000" fill-rule="evenodd" fill-opacity="1" /><path clip-path="url(#clip770)" d="M286.042 646.446 L286.042 642.986 Q287.471 643.663 288.938 644.02 Q290.405 644.377 291.816 644.377 Q295.577 644.377 297.552 641.857 Q299.546 639.318 299.828 634.165 Q298.737 635.782 297.063 636.647 Q295.389 637.513 293.358 637.513 Q289.145 637.513 286.681 634.973 Q284.236 632.416 284.236 627.996 Q284.236 623.67 286.794 621.056 Q289.352 618.441 293.602 618.441 Q298.474 618.441 301.031 622.184 Q303.608 625.908 303.608 633.017 Q303.608 639.657 300.448 643.625 Q297.307 647.575 291.985 647.575 Q290.556 647.575 289.089 647.293 Q287.621 647.01 286.042 646.446 M293.602 634.541 Q296.16 634.541 297.646 632.792 Q299.151 631.043 299.151 627.996 Q299.151 624.968 297.646 623.219 Q296.16 621.451 293.602 621.451 Q291.045 621.451 289.54 623.219 Q288.054 624.968 288.054 627.996 Q288.054 631.043 289.54 632.792 Q291.045 634.541 293.602 634.541 Z" fill="#000000" fill-rule="evenodd" fill-opacity="1" /><path clip-path="url(#clip770)" d="M115.834 394.652 L138.056 394.652 L138.056 396.643 L125.51 429.212 L120.626 429.212 L132.431 398.587 L115.834 398.587 L115.834 394.652 Z" fill="#000000" fill-rule="evenodd" fill-opacity="1" /><path clip-path="url(#clip770)" d="M147.177 423.332 L152.061 423.332 L152.061 429.212 L147.177 429.212 L147.177 423.332 Z" fill="#000000" fill-rule="evenodd" fill-opacity="1" /><path clip-path="url(#clip770)" d="M172.246 397.73 Q168.635 397.73 166.806 401.295 Q165.001 404.837 165.001 411.966 Q165.001 419.073 166.806 422.638 Q168.635 426.179 172.246 426.179 Q175.88 426.179 177.686 422.638 Q179.514 419.073 179.514 411.966 Q179.514 404.837 177.686 401.295 Q175.88 397.73 172.246 397.73 M172.246 394.027 Q178.056 394.027 181.112 398.633 Q184.19 403.217 184.19 411.966 Q184.19 420.693 181.112 425.3 Q178.056 429.883 172.246 429.883 Q166.436 429.883 163.357 425.3 Q160.302 420.693 160.302 411.966 Q160.302 403.217 163.357 398.633 Q166.436 394.027 172.246 394.027 Z" fill="#000000" fill-rule="evenodd" fill-opacity="1" /><path clip-path="url(#clip770)" d="M220.579 403.749 L210 414.374 L220.579 424.953 L217.824 427.753 L207.199 417.129 L196.575 427.753 L193.843 424.953 L204.399 414.374 L193.843 403.749 L196.575 400.948 L207.199 411.573 L217.824 400.948 L220.579 403.749 Z" fill="#000000" fill-rule="evenodd" fill-opacity="1" /><path clip-path="url(#clip770)" d="M232.94 425.277 L240.579 425.277 L240.579 398.911 L232.269 400.578 L232.269 396.318 L240.533 394.652 L245.209 394.652 L245.209 425.277 L252.847 425.277 L252.847 429.212 L232.94 429.212 L232.94 425.277 Z" fill="#000000" fill-rule="evenodd" fill-opacity="1" /><path clip-path="url(#clip770)" d="M272.292 397.73 Q268.681 397.73 266.852 401.295 Q265.046 404.837 265.046 411.966 Q265.046 419.073 266.852 422.638 Q268.681 426.179 272.292 426.179 Q275.926 426.179 277.732 422.638 Q279.56 419.073 279.56 411.966 Q279.56 404.837 277.732 401.295 Q275.926 397.73 272.292 397.73 M272.292 394.027 Q278.102 394.027 281.157 398.633 Q284.236 403.217 284.236 411.966 Q284.236 420.693 281.157 425.3 Q278.102 429.883 272.292 429.883 Q266.482 429.883 263.403 425.3 Q260.347 420.693 260.347 411.966 Q260.347 403.217 263.403 398.633 Q266.482 394.027 272.292 394.027 Z" fill="#000000" fill-rule="evenodd" fill-opacity="1" /><path clip-path="url(#clip770)" d="M286.042 401.218 L286.042 397.758 Q287.471 398.435 288.938 398.792 Q290.405 399.149 291.816 399.149 Q295.577 399.149 297.552 396.629 Q299.546 394.09 299.828 388.937 Q298.737 390.554 297.063 391.419 Q295.389 392.285 293.358 392.285 Q289.145 392.285 286.681 389.746 Q284.236 387.188 284.236 382.768 Q284.236 378.442 286.794 375.828 Q289.352 373.214 293.602 373.214 Q298.474 373.214 301.031 376.956 Q303.608 380.68 303.608 387.79 Q303.608 394.429 300.448 398.397 Q297.307 402.347 291.985 402.347 Q290.556 402.347 289.089 402.065 Q287.621 401.783 286.042 401.218 M293.602 389.313 Q296.16 389.313 297.646 387.564 Q299.151 385.815 299.151 382.768 Q299.151 379.74 297.646 377.991 Q296.16 376.223 293.602 376.223 Q291.045 376.223 289.54 377.991 Q288.054 379.74 288.054 382.768 Q288.054 385.815 289.54 387.564 Q291.045 389.313 293.602 389.313 Z" fill="#000000" fill-rule="evenodd" fill-opacity="1" /><path clip-path="url(#clip770)" d="M127.015 167.572 Q123.681 167.572 121.76 169.354 Q119.862 171.137 119.862 174.262 Q119.862 177.387 121.76 179.169 Q123.681 180.952 127.015 180.952 Q130.348 180.952 132.269 179.169 Q134.191 177.364 134.191 174.262 Q134.191 171.137 132.269 169.354 Q130.371 167.572 127.015 167.572 M122.339 165.581 Q119.33 164.84 117.64 162.78 Q115.973 160.72 115.973 157.757 Q115.973 153.614 118.913 151.206 Q121.876 148.799 127.015 148.799 Q132.177 148.799 135.117 151.206 Q138.056 153.614 138.056 157.757 Q138.056 160.72 136.367 162.78 Q134.7 164.84 131.714 165.581 Q135.093 166.368 136.968 168.66 Q138.867 170.952 138.867 174.262 Q138.867 179.285 135.788 181.97 Q132.732 184.655 127.015 184.655 Q121.297 184.655 118.218 181.97 Q115.163 179.285 115.163 174.262 Q115.163 170.952 117.061 168.66 Q118.959 166.368 122.339 165.581 M120.626 158.197 Q120.626 160.882 122.293 162.387 Q123.982 163.891 127.015 163.891 Q130.024 163.891 131.714 162.387 Q133.427 160.882 133.427 158.197 Q133.427 155.512 131.714 154.007 Q130.024 152.503 127.015 152.503 Q123.982 152.503 122.293 154.007 Q120.626 155.512 120.626 158.197 Z" fill="#000000" fill-rule="evenodd" fill-opacity="1" /><path clip-path="url(#clip770)" d="M147.177 178.104 L152.061 178.104 L152.061 183.984 L147.177 183.984 L147.177 178.104 Z" fill="#000000" fill-rule="evenodd" fill-opacity="1" /><path clip-path="url(#clip770)" d="M172.246 152.503 Q168.635 152.503 166.806 156.067 Q165.001 159.609 165.001 166.739 Q165.001 173.845 166.806 177.41 Q168.635 180.952 172.246 180.952 Q175.88 180.952 177.686 177.41 Q179.514 173.845 179.514 166.739 Q179.514 159.609 177.686 156.067 Q175.88 152.503 172.246 152.503 M172.246 148.799 Q178.056 148.799 181.112 153.405 Q184.19 157.989 184.19 166.739 Q184.19 175.465 181.112 180.072 Q178.056 184.655 172.246 184.655 Q166.436 184.655 163.357 180.072 Q160.302 175.465 160.302 166.739 Q160.302 157.989 163.357 153.405 Q166.436 148.799 172.246 148.799 Z" fill="#000000" fill-rule="evenodd" fill-opacity="1" /><path clip-path="url(#clip770)" d="M220.579 158.521 L210 169.146 L220.579 179.725 L217.824 182.526 L207.199 171.901 L196.575 182.526 L193.843 179.725 L204.399 169.146 L193.843 158.521 L196.575 155.72 L207.199 166.345 L217.824 155.72 L220.579 158.521 Z" fill="#000000" fill-rule="evenodd" fill-opacity="1" /><path clip-path="url(#clip770)" d="M232.94 180.049 L240.579 180.049 L240.579 153.683 L232.269 155.35 L232.269 151.091 L240.533 149.424 L245.209 149.424 L245.209 180.049 L252.847 180.049 L252.847 183.984 L232.94 183.984 L232.94 180.049 Z" fill="#000000" fill-rule="evenodd" fill-opacity="1" /><path clip-path="url(#clip770)" d="M272.292 152.503 Q268.681 152.503 266.852 156.067 Q265.046 159.609 265.046 166.739 Q265.046 173.845 266.852 177.41 Q268.681 180.952 272.292 180.952 Q275.926 180.952 277.732 177.41 Q279.56 173.845 279.56 166.739 Q279.56 159.609 277.732 156.067 Q275.926 152.503 272.292 152.503 M272.292 148.799 Q278.102 148.799 281.157 153.405 Q284.236 157.989 284.236 166.739 Q284.236 175.465 281.157 180.072 Q278.102 184.655 272.292 184.655 Q266.482 184.655 263.403 180.072 Q260.347 175.465 260.347 166.739 Q260.347 157.989 263.403 153.405 Q266.482 148.799 272.292 148.799 Z" fill="#000000" fill-rule="evenodd" fill-opacity="1" /><path clip-path="url(#clip770)" d="M286.042 155.99 L286.042 152.53 Q287.471 153.207 288.938 153.564 Q290.405 153.922 291.816 153.922 Q295.577 153.922 297.552 151.401 Q299.546 148.862 299.828 143.709 Q298.737 145.326 297.063 146.192 Q295.389 147.057 293.358 147.057 Q289.145 147.057 286.681 144.518 Q284.236 141.96 284.236 137.54 Q284.236 133.214 286.794 130.6 Q289.352 127.986 293.602 127.986 Q298.474 127.986 301.031 131.728 Q303.608 135.452 303.608 142.562 Q303.608 149.201 300.448 153.169 Q297.307 157.119 291.985 157.119 Q290.556 157.119 289.089 156.837 Q287.621 156.555 286.042 155.99 M293.602 144.085 Q296.16 144.085 297.646 142.336 Q299.151 140.587 299.151 137.54 Q299.151 134.512 297.646 132.763 Q296.16 130.995 293.602 130.995 Q291.045 130.995 289.54 132.763 Q288.054 134.512 288.054 137.54 Q288.054 140.587 289.54 142.336 Q291.045 144.085 293.602 144.085 Z" fill="#000000" fill-rule="evenodd" fill-opacity="1" /><path clip-path="url(#clip770)" d="M14.479 987.962 L19.3487 987.962 L19.3487 993.564 Q19.3487 996.715 20.6219 997.956 Q21.895 999.165 25.2052 999.165 L28.3562 999.165 L28.3562 989.521 L32.9077 989.521 L32.9077 999.165 L64.0042 999.165 L64.0042 1005.05 L32.9077 1005.05 L32.9077 1010.66 L28.3562 1010.66 L28.3562 1005.05 L25.8736 1005.05 Q19.9216 1005.05 17.2162 1002.28 Q14.479 999.515 14.479 993.5 L14.479 987.962 Z" fill="#000000" fill-rule="evenodd" fill-opacity="1" /><path clip-path="url(#clip770)" d="M33.8307 962.403 Q33.2578 963.39 33.0032 964.568 Q32.7167 965.714 32.7167 967.114 Q32.7167 972.079 35.9632 974.753 Q39.1779 977.395 45.2253 977.395 L64.0042 977.395 L64.0042 983.283 L28.3562 983.283 L28.3562 977.395 L33.8944 977.395 Q30.6479 975.549 29.0883 972.589 Q27.4968 969.628 27.4968 965.395 Q27.4968 964.791 27.5923 964.058 Q27.656 963.326 27.8151 962.435 L33.8307 962.403 Z" fill="#000000" fill-rule="evenodd" fill-opacity="1" /><path clip-path="url(#clip770)" d="M44.7161 927.201 L47.5806 927.201 L47.5806 954.128 Q53.6281 953.746 56.8109 950.5 Q59.9619 947.221 59.9619 941.397 Q59.9619 938.023 59.1344 934.872 Q58.3069 931.689 56.6518 928.57 L62.1899 928.57 Q63.5267 931.721 64.227 935.031 Q64.9272 938.341 64.9272 941.747 Q64.9272 950.277 59.9619 955.274 Q54.9967 960.239 46.5303 960.239 Q37.7774 960.239 32.6531 955.528 Q27.4968 950.786 27.4968 942.765 Q27.4968 935.572 32.1438 931.402 Q36.7589 927.201 44.7161 927.201 M42.9973 933.057 Q38.1912 933.121 35.3266 935.763 Q32.4621 938.373 32.4621 942.702 Q32.4621 947.603 35.2312 950.563 Q38.0002 953.491 43.0292 953.937 L42.9973 933.057 Z" fill="#000000" fill-rule="evenodd" fill-opacity="1" /><path clip-path="url(#clip770)" d="M46.212 914.088 Q52.6732 914.088 56.3653 911.446 Q60.0256 908.772 60.0256 904.125 Q60.0256 899.478 56.3653 896.805 Q52.6732 894.131 46.212 894.131 Q39.7508 894.131 36.0905 896.805 Q32.3984 899.478 32.3984 904.125 Q32.3984 908.772 36.0905 911.446 Q39.7508 914.088 46.212 914.088 M58.657 894.131 Q61.8398 895.977 63.3994 898.81 Q64.9272 901.611 64.9272 905.558 Q64.9272 912.019 59.771 916.093 Q54.6147 920.135 46.212 920.135 Q37.8093 920.135 32.6531 916.093 Q27.4968 912.019 27.4968 905.558 Q27.4968 901.611 29.0564 898.81 Q30.5842 895.977 33.7671 894.131 L28.3562 894.131 L28.3562 888.275 L77.5631 888.275 L77.5631 894.131 L58.657 894.131 Z" fill="#000000" fill-rule="evenodd" fill-opacity="1" /><path clip-path="url(#clip770)" d="M49.9359 876.816 L28.3562 876.816 L28.3562 870.96 L49.7131 870.96 Q54.7739 870.96 57.3202 868.987 Q59.8346 867.013 59.8346 863.067 Q59.8346 858.324 56.8109 855.587 Q53.7872 852.818 48.5673 852.818 L28.3562 852.818 L28.3562 846.961 L64.0042 846.961 L64.0042 852.818 L58.5296 852.818 Q61.7762 854.95 63.3676 857.783 Q64.9272 860.584 64.9272 864.308 Q64.9272 870.451 61.1078 873.634 Q57.2883 876.816 49.9359 876.816 M27.4968 862.08 L27.4968 862.08 Z" fill="#000000" fill-rule="evenodd" fill-opacity="1" /><path clip-path="url(#clip770)" d="M44.7161 804.407 L47.5806 804.407 L47.5806 831.333 Q53.6281 830.952 56.8109 827.705 Q59.9619 824.427 59.9619 818.602 Q59.9619 815.228 59.1344 812.077 Q58.3069 808.894 56.6518 805.775 L62.1899 805.775 Q63.5267 808.926 64.227 812.236 Q64.9272 815.547 64.9272 818.952 Q64.9272 827.482 59.9619 832.479 Q54.9967 837.445 46.5303 837.445 Q37.7774 837.445 32.6531 832.734 Q27.4968 827.991 27.4968 819.971 Q27.4968 812.777 32.1438 808.608 Q36.7589 804.407 44.7161 804.407 M42.9973 810.263 Q38.1912 810.327 35.3266 812.968 Q32.4621 815.578 32.4621 819.907 Q32.4621 824.809 35.2312 827.769 Q38.0002 830.697 43.0292 831.143 L42.9973 810.263 Z" fill="#000000" fill-rule="evenodd" fill-opacity="1" /><path clip-path="url(#clip770)" d="M42.4881 765.162 L64.0042 765.162 L64.0042 771.018 L42.679 771.018 Q37.6183 771.018 35.1038 772.992 Q32.5894 774.965 32.5894 778.912 Q32.5894 783.654 35.6131 786.392 Q38.6368 789.129 43.8567 789.129 L64.0042 789.129 L64.0042 795.017 L28.3562 795.017 L28.3562 789.129 L33.8944 789.129 Q30.6797 787.028 29.0883 784.195 Q27.4968 781.331 27.4968 777.607 Q27.4968 771.464 31.3163 768.313 Q35.1038 765.162 42.4881 765.162 Z" fill="#000000" fill-rule="evenodd" fill-opacity="1" /><path clip-path="url(#clip770)" d="M29.7248 727.827 L35.1993 727.827 Q33.8307 730.31 33.1623 732.824 Q32.4621 735.307 32.4621 737.853 Q32.4621 743.55 36.0905 746.701 Q39.6872 749.852 46.212 749.852 Q52.7369 749.852 56.3653 746.701 Q59.9619 743.55 59.9619 737.853 Q59.9619 735.307 59.2935 732.824 Q58.5933 730.31 57.2247 727.827 L62.6355 727.827 Q63.7814 730.278 64.3543 732.92 Q64.9272 735.53 64.9272 738.49 Q64.9272 746.542 59.8664 751.285 Q54.8057 756.027 46.212 756.027 Q37.491 756.027 32.4939 751.253 Q27.4968 746.447 27.4968 738.108 Q27.4968 735.402 28.0697 732.824 Q28.6108 730.246 29.7248 727.827 Z" fill="#000000" fill-rule="evenodd" fill-opacity="1" /><path clip-path="url(#clip770)" d="M67.3143 702.81 Q73.68 705.292 75.6216 707.648 Q77.5631 710.003 77.5631 713.95 L77.5631 718.629 L72.6615 718.629 L72.6615 715.191 Q72.6615 712.772 71.5157 711.435 Q70.3699 710.099 66.1048 708.475 L63.4312 707.425 L28.3562 721.843 L28.3562 715.637 L56.238 704.497 L28.3562 693.357 L28.3562 687.15 L67.3143 702.81 Z" fill="#000000" fill-rule="evenodd" fill-opacity="1" /><path clip-path="url(#clip770)" d="M14.479 658.886 L14.479 645.391 L19.0304 645.391 L19.0304 653.03 L68.0464 653.03 L68.0464 645.391 L72.5979 645.391 L72.5979 658.886 L14.479 658.886 Z" fill="#000000" fill-rule="evenodd" fill-opacity="1" /><path clip-path="url(#clip770)" d="M16.4842 632.66 L16.4842 626.23 L35.9632 626.23 L35.9632 602.868 L16.4842 602.868 L16.4842 596.439 L64.0042 596.439 L64.0042 602.868 L41.3741 602.868 L41.3741 626.23 L64.0042 626.23 L64.0042 632.66 L16.4842 632.66 Z" fill="#000000" fill-rule="evenodd" fill-opacity="1" /><path clip-path="url(#clip770)" d="M28.3562 586.445 L28.3562 558.627 L33.7034 558.627 L59.3254 580.652 L59.3254 558.627 L64.0042 558.627 L64.0042 587.24 L58.657 587.24 L33.035 565.215 L33.035 586.445 L28.3562 586.445 Z" fill="#000000" fill-rule="evenodd" fill-opacity="1" /><path clip-path="url(#clip770)" d="M14.479 535.997 L72.5979 535.997 L72.5979 549.492 L68.0464 549.492 L68.0464 541.885 L19.0304 541.885 L19.0304 549.492 L14.479 549.492 L14.479 535.997 Z" fill="#000000" fill-rule="evenodd" fill-opacity="1" /><path clip-path="url(#clip770)" d="M583.721 18.8205 L583.721 65.8515 L593.605 65.8515 Q606.122 65.8515 611.915 60.1802 Q617.748 54.509 617.748 42.2752 Q617.748 30.1225 611.915 24.4918 Q606.122 18.8205 593.605 18.8205 L583.721 18.8205 M575.538 12.096 L592.349 12.096 Q609.93 12.096 618.153 19.4281 Q626.377 26.7198 626.377 42.2752 Q626.377 57.9117 618.113 65.2439 Q609.849 72.576 592.349 72.576 L575.538 72.576 L575.538 12.096 Z" fill="#000000" fill-rule="evenodd" fill-opacity="1" /><path clip-path="url(#clip770)" d="M639.097 27.2059 L646.55 27.2059 L646.55 72.576 L639.097 72.576 L639.097 27.2059 M639.097 9.54393 L646.55 9.54393 L646.55 18.9825 L639.097 18.9825 L639.097 9.54393 Z" fill="#000000" fill-rule="evenodd" fill-opacity="1" /><path clip-path="url(#clip770)" d="M691.07 28.5427 L691.07 35.5912 Q687.91 33.9709 684.507 33.1607 Q681.105 32.3505 677.459 32.3505 Q671.909 32.3505 669.114 34.0519 Q666.359 35.7533 666.359 39.156 Q666.359 41.7486 668.344 43.2475 Q670.329 44.7058 676.324 46.0426 L678.877 46.6097 Q686.816 48.3111 690.138 51.4303 Q693.5 54.509 693.5 60.0587 Q693.5 66.3781 688.477 70.0644 Q683.495 73.7508 674.745 73.7508 Q671.099 73.7508 667.129 73.0216 Q663.2 72.3329 658.825 70.9151 L658.825 63.2184 Q662.956 65.3654 666.967 66.4591 Q670.977 67.5124 674.907 67.5124 Q680.173 67.5124 683.008 65.73 Q685.844 63.9071 685.844 60.6258 Q685.844 57.5877 683.778 55.9673 Q681.753 54.3469 674.826 52.8481 L672.233 52.2405 Q665.306 50.7821 662.227 47.7845 Q659.149 44.7463 659.149 39.4801 Q659.149 33.0797 663.686 29.5959 Q668.223 26.1121 676.568 26.1121 Q680.699 26.1121 684.345 26.7198 Q687.991 27.3274 691.07 28.5427 Z" fill="#000000" fill-rule="evenodd" fill-opacity="1" /><path clip-path="url(#clip770)" d="M712.58 65.7705 L712.58 89.8329 L705.086 89.8329 L705.086 27.2059 L712.58 27.2059 L712.58 34.0924 Q714.93 30.0415 718.494 28.0971 Q722.1 26.1121 727.082 26.1121 Q735.346 26.1121 740.491 32.6746 Q745.676 39.2371 745.676 49.9314 Q745.676 60.6258 740.491 67.1883 Q735.346 73.7508 727.082 73.7508 Q722.1 73.7508 718.494 71.8063 Q714.93 69.8214 712.58 65.7705 M737.939 49.9314 Q737.939 41.7081 734.536 37.0496 Q731.174 32.3505 725.259 32.3505 Q719.345 32.3505 715.942 37.0496 Q712.58 41.7081 712.58 49.9314 Q712.58 58.1548 715.942 62.8538 Q719.345 67.5124 725.259 67.5124 Q731.174 67.5124 734.536 62.8538 Q737.939 58.1548 737.939 49.9314 Z" fill="#000000" fill-rule="evenodd" fill-opacity="1" /><path clip-path="url(#clip770)" d="M796.839 48.0275 L796.839 51.6733 L762.568 51.6733 Q763.054 59.3701 767.186 63.421 Q771.359 67.4314 778.772 67.4314 Q783.066 67.4314 787.076 66.3781 Q791.127 65.3249 795.097 63.2184 L795.097 70.267 Q791.087 71.9684 786.874 72.8596 Q782.661 73.7508 778.326 73.7508 Q767.47 73.7508 761.11 67.4314 Q754.79 61.1119 754.79 50.3365 Q754.79 39.1965 760.786 32.6746 Q766.822 26.1121 777.03 26.1121 Q786.185 26.1121 791.492 32.0264 Q796.839 37.9003 796.839 48.0275 M789.385 45.84 Q789.304 39.7232 785.942 36.0774 Q782.62 32.4315 777.111 32.4315 Q770.873 32.4315 767.105 35.9558 Q763.378 39.4801 762.811 45.8805 L789.385 45.84 Z" fill="#000000" fill-rule="evenodd" fill-opacity="1" /><path clip-path="url(#clip770)" d="M835.363 34.1734 Q834.107 33.4443 832.608 33.1202 Q831.15 32.7556 829.368 32.7556 Q823.048 32.7556 819.645 36.8875 Q816.283 40.9789 816.283 48.6757 L816.283 72.576 L808.789 72.576 L808.789 27.2059 L816.283 27.2059 L816.283 34.2544 Q818.633 30.1225 822.4 28.1376 Q826.167 26.1121 831.555 26.1121 Q832.325 26.1121 833.257 26.2337 Q834.188 26.3147 835.322 26.5172 L835.363 34.1734 Z" fill="#000000" fill-rule="evenodd" fill-opacity="1" /><path clip-path="url(#clip770)" d="M872.105 28.5427 L872.105 35.5912 Q868.945 33.9709 865.542 33.1607 Q862.139 32.3505 858.494 32.3505 Q852.944 32.3505 850.149 34.0519 Q847.394 35.7533 847.394 39.156 Q847.394 41.7486 849.379 43.2475 Q851.364 44.7058 857.359 46.0426 L859.911 46.6097 Q867.851 48.3111 871.173 51.4303 Q874.535 54.509 874.535 60.0587 Q874.535 66.3781 869.512 70.0644 Q864.529 73.7508 855.78 73.7508 Q852.134 73.7508 848.164 73.0216 Q844.234 72.3329 839.859 70.9151 L839.859 63.2184 Q843.991 65.3654 848.002 66.4591 Q852.012 67.5124 855.942 67.5124 Q861.208 67.5124 864.043 65.73 Q866.879 63.9071 866.879 60.6258 Q866.879 57.5877 864.813 55.9673 Q862.788 54.3469 855.861 52.8481 L853.268 52.2405 Q846.341 50.7821 843.262 47.7845 Q840.184 44.7463 840.184 39.4801 Q840.184 33.0797 844.721 29.5959 Q849.258 26.1121 857.602 26.1121 Q861.734 26.1121 865.38 26.7198 Q869.026 27.3274 872.105 28.5427 Z" fill="#000000" fill-rule="evenodd" fill-opacity="1" /><path clip-path="url(#clip770)" d="M886.404 27.2059 L893.858 27.2059 L893.858 72.576 L886.404 72.576 L886.404 27.2059 M886.404 9.54393 L893.858 9.54393 L893.858 18.9825 L886.404 18.9825 L886.404 9.54393 Z" fill="#000000" fill-rule="evenodd" fill-opacity="1" /><path clip-path="url(#clip770)" d="M927.035 32.4315 Q921.04 32.4315 917.556 37.1306 Q914.072 41.7891 914.072 49.9314 Q914.072 58.0738 917.515 62.7728 Q920.999 67.4314 927.035 67.4314 Q932.99 67.4314 936.474 62.7323 Q939.957 58.0333 939.957 49.9314 Q939.957 41.8701 936.474 37.1711 Q932.99 32.4315 927.035 32.4315 M927.035 26.1121 Q936.757 26.1121 942.307 32.4315 Q947.857 38.7509 947.857 49.9314 Q947.857 61.0714 942.307 67.4314 Q936.757 73.7508 927.035 73.7508 Q917.272 73.7508 911.723 67.4314 Q906.213 61.0714 906.213 49.9314 Q906.213 38.7509 911.723 32.4315 Q917.272 26.1121 927.035 26.1121 Z" fill="#000000" fill-rule="evenodd" fill-opacity="1" /><path clip-path="url(#clip770)" d="M997.926 45.1919 L997.926 72.576 L990.472 72.576 L990.472 45.4349 Q990.472 38.994 987.961 35.7938 Q985.449 32.5936 980.426 32.5936 Q974.39 32.5936 970.906 36.4419 Q967.422 40.2903 967.422 46.9338 L967.422 72.576 L959.928 72.576 L959.928 27.2059 L967.422 27.2059 L967.422 34.2544 Q970.096 30.163 973.701 28.1376 Q977.347 26.1121 982.087 26.1121 Q989.905 26.1121 993.915 30.9732 Q997.926 35.7938 997.926 45.1919 Z" fill="#000000" fill-rule="evenodd" fill-opacity="1" /><path clip-path="url(#clip770)" d="M1065.45 34.1734 Q1064.2 33.4443 1062.7 33.1202 Q1061.24 32.7556 1059.46 32.7556 Q1053.14 32.7556 1049.74 36.8875 Q1046.37 40.9789 1046.37 48.6757 L1046.37 72.576 L1038.88 72.576 L1038.88 27.2059 L1046.37 27.2059 L1046.37 34.2544 Q1048.72 30.1225 1052.49 28.1376 Q1056.26 26.1121 1061.65 26.1121 Q1062.42 26.1121 1063.35 26.2337 Q1064.28 26.3147 1065.41 26.5172 L1065.45 34.1734 Z" fill="#000000" fill-rule="evenodd" fill-opacity="1" /><path clip-path="url(#clip770)" d="M1110.26 48.0275 L1110.26 51.6733 L1075.99 51.6733 Q1076.47 59.3701 1080.6 63.421 Q1084.78 67.4314 1092.19 67.4314 Q1096.48 67.4314 1100.49 66.3781 Q1104.55 65.3249 1108.52 63.2184 L1108.52 70.267 Q1104.51 71.9684 1100.29 72.8596 Q1096.08 73.7508 1091.74 73.7508 Q1080.89 73.7508 1074.53 67.4314 Q1068.21 61.1119 1068.21 50.3365 Q1068.21 39.1965 1074.2 32.6746 Q1080.24 26.1121 1090.45 26.1121 Q1099.6 26.1121 1104.91 32.0264 Q1110.26 37.9003 1110.26 48.0275 M1102.8 45.84 Q1102.72 39.7232 1099.36 36.0774 Q1096.04 32.4315 1090.53 32.4315 Q1084.29 32.4315 1080.52 35.9558 Q1076.8 39.4801 1076.23 45.8805 L1102.8 45.84 Z" fill="#000000" fill-rule="evenodd" fill-opacity="1" /><path clip-path="url(#clip770)" d="M1122.49 9.54393 L1129.94 9.54393 L1129.94 72.576 L1122.49 72.576 L1122.49 9.54393 Z" fill="#000000" fill-rule="evenodd" fill-opacity="1" /><path clip-path="url(#clip770)" d="M1166.16 49.7694 Q1157.13 49.7694 1153.64 51.8354 Q1150.16 53.9013 1150.16 58.8839 Q1150.16 62.8538 1152.75 65.2034 Q1155.38 67.5124 1159.88 67.5124 Q1166.08 67.5124 1169.81 63.1374 Q1173.57 58.7219 1173.57 51.4303 L1173.57 49.7694 L1166.16 49.7694 M1181.03 46.6907 L1181.03 72.576 L1173.57 72.576 L1173.57 65.6895 Q1171.02 69.8214 1167.21 71.8063 Q1163.41 73.7508 1157.9 73.7508 Q1150.93 73.7508 1146.8 69.8619 Q1142.71 65.9325 1142.71 59.3701 Q1142.71 51.7138 1147.81 47.825 Q1152.95 43.9361 1163.12 43.9361 L1173.57 43.9361 L1173.57 43.2069 Q1173.57 38.0623 1170.17 35.2672 Q1166.81 32.4315 1160.69 32.4315 Q1156.8 32.4315 1153.12 33.3632 Q1149.43 34.295 1146.03 36.1584 L1146.03 29.2718 Q1150.12 27.692 1153.97 26.9223 Q1157.81 26.1121 1161.46 26.1121 Q1171.3 26.1121 1176.17 31.2163 Q1181.03 36.3204 1181.03 46.6907 Z" fill="#000000" fill-rule="evenodd" fill-opacity="1" /><path clip-path="url(#clip770)" d="M1203.75 14.324 L1203.75 27.2059 L1219.11 27.2059 L1219.11 32.9987 L1203.75 32.9987 L1203.75 57.6282 Q1203.75 63.1779 1205.25 64.7578 Q1206.79 66.3376 1211.45 66.3376 L1219.11 66.3376 L1219.11 72.576 L1211.45 72.576 Q1202.82 72.576 1199.54 69.3758 Q1196.26 66.1351 1196.26 57.6282 L1196.26 32.9987 L1190.79 32.9987 L1190.79 27.2059 L1196.26 27.2059 L1196.26 14.324 L1203.75 14.324 Z" fill="#000000" fill-rule="evenodd" fill-opacity="1" /><path clip-path="url(#clip770)" d="M1228.91 27.2059 L1236.36 27.2059 L1236.36 72.576 L1228.91 72.576 L1228.91 27.2059 M1228.91 9.54393 L1236.36 9.54393 L1236.36 18.9825 L1228.91 18.9825 L1228.91 9.54393 Z" fill="#000000" fill-rule="evenodd" fill-opacity="1" /><path clip-path="url(#clip770)" d="M1269.54 32.4315 Q1263.54 32.4315 1260.06 37.1306 Q1256.58 41.7891 1256.58 49.9314 Q1256.58 58.0738 1260.02 62.7728 Q1263.5 67.4314 1269.54 67.4314 Q1275.49 67.4314 1278.98 62.7323 Q1282.46 58.0333 1282.46 49.9314 Q1282.46 41.8701 1278.98 37.1711 Q1275.49 32.4315 1269.54 32.4315 M1269.54 26.1121 Q1279.26 26.1121 1284.81 32.4315 Q1290.36 38.7509 1290.36 49.9314 Q1290.36 61.0714 1284.81 67.4314 Q1279.26 73.7508 1269.54 73.7508 Q1259.78 73.7508 1254.23 67.4314 Q1248.72 61.0714 1248.72 49.9314 Q1248.72 38.7509 1254.23 32.4315 Q1259.78 26.1121 1269.54 26.1121 Z" fill="#000000" fill-rule="evenodd" fill-opacity="1" /><path clip-path="url(#clip770)" d="M1340.43 45.1919 L1340.43 72.576 L1332.98 72.576 L1332.98 45.4349 Q1332.98 38.994 1330.46 35.7938 Q1327.95 32.5936 1322.93 32.5936 Q1316.89 32.5936 1313.41 36.4419 Q1309.93 40.2903 1309.93 46.9338 L1309.93 72.576 L1302.43 72.576 L1302.43 27.2059 L1309.93 27.2059 L1309.93 34.2544 Q1312.6 30.163 1316.21 28.1376 Q1319.85 26.1121 1324.59 26.1121 Q1332.41 26.1121 1336.42 30.9732 Q1340.43 35.7938 1340.43 45.1919 Z" fill="#000000" fill-rule="evenodd" fill-opacity="1" /><path clip-path="url(#clip770)" d="M1414.24 49.9314 Q1414.24 41.7081 1410.83 37.0496 Q1407.47 32.3505 1401.56 32.3505 Q1395.64 32.3505 1392.24 37.0496 Q1388.88 41.7081 1388.88 49.9314 Q1388.88 58.1548 1392.24 62.8538 Q1395.64 67.5124 1401.56 67.5124 Q1407.47 67.5124 1410.83 62.8538 Q1414.24 58.1548 1414.24 49.9314 M1388.88 34.0924 Q1391.23 30.0415 1394.79 28.0971 Q1398.4 26.1121 1403.38 26.1121 Q1411.64 26.1121 1416.79 32.6746 Q1421.97 39.2371 1421.97 49.9314 Q1421.97 60.6258 1416.79 67.1883 Q1411.64 73.7508 1403.38 73.7508 Q1398.4 73.7508 1394.79 71.8063 Q1391.23 69.8214 1388.88 65.7705 L1388.88 72.576 L1381.38 72.576 L1381.38 9.54393 L1388.88 9.54393 L1388.88 34.0924 Z" fill="#000000" fill-rule="evenodd" fill-opacity="1" /><path clip-path="url(#clip770)" d="M1473.14 48.0275 L1473.14 51.6733 L1438.87 51.6733 Q1439.35 59.3701 1443.48 63.421 Q1447.66 67.4314 1455.07 67.4314 Q1459.36 67.4314 1463.37 66.3781 Q1467.43 65.3249 1471.4 63.2184 L1471.4 70.267 Q1467.39 71.9684 1463.17 72.8596 Q1458.96 73.7508 1454.62 73.7508 Q1443.77 73.7508 1437.41 67.4314 Q1431.09 61.1119 1431.09 50.3365 Q1431.09 39.1965 1437.08 32.6746 Q1443.12 26.1121 1453.33 26.1121 Q1462.48 26.1121 1467.79 32.0264 Q1473.14 37.9003 1473.14 48.0275 M1465.68 45.84 Q1465.6 39.7232 1462.24 36.0774 Q1458.92 32.4315 1453.41 32.4315 Q1447.17 32.4315 1443.4 35.9558 Q1439.68 39.4801 1439.11 45.8805 L1465.68 45.84 Z" fill="#000000" fill-rule="evenodd" fill-opacity="1" /><path clip-path="url(#clip770)" d="M1492.74 14.324 L1492.74 27.2059 L1508.1 27.2059 L1508.1 32.9987 L1492.74 32.9987 L1492.74 57.6282 Q1492.74 63.1779 1494.24 64.7578 Q1495.78 66.3376 1500.44 66.3376 L1508.1 66.3376 L1508.1 72.576 L1500.44 72.576 Q1491.81 72.576 1488.53 69.3758 Q1485.25 66.1351 1485.25 57.6282 L1485.25 32.9987 L1479.78 32.9987 L1479.78 27.2059 L1485.25 27.2059 L1485.25 14.324 L1492.74 14.324 Z" fill="#000000" fill-rule="evenodd" fill-opacity="1" /><path clip-path="url(#clip770)" d="M1513.57 27.2059 L1521.02 27.2059 L1530.34 62.6108 L1539.61 27.2059 L1548.4 27.2059 L1557.72 62.6108 L1567 27.2059 L1574.45 27.2059 L1562.58 72.576 L1553.79 72.576 L1544.03 35.3887 L1534.22 72.576 L1525.43 72.576 L1513.57 27.2059 Z" fill="#000000" fill-rule="evenodd" fill-opacity="1" /><path clip-path="url(#clip770)" d="M1624.56 48.0275 L1624.56 51.6733 L1590.29 51.6733 Q1590.78 59.3701 1594.91 63.421 Q1599.08 67.4314 1606.49 67.4314 Q1610.79 67.4314 1614.8 66.3781 Q1618.85 65.3249 1622.82 63.2184 L1622.82 70.267 Q1618.81 71.9684 1614.59 72.8596 Q1610.38 73.7508 1606.05 73.7508 Q1595.19 73.7508 1588.83 67.4314 Q1582.51 61.1119 1582.51 50.3365 Q1582.51 39.1965 1588.51 32.6746 Q1594.54 26.1121 1604.75 26.1121 Q1613.91 26.1121 1619.21 32.0264 Q1624.56 37.9003 1624.56 48.0275 M1617.11 45.84 Q1617.03 39.7232 1613.66 36.0774 Q1610.34 32.4315 1604.83 32.4315 Q1598.59 32.4315 1594.83 35.9558 Q1591.1 39.4801 1590.53 45.8805 L1617.11 45.84 Z" fill="#000000" fill-rule="evenodd" fill-opacity="1" /><path clip-path="url(#clip770)" d="M1675.6 48.0275 L1675.6 51.6733 L1641.33 51.6733 Q1641.82 59.3701 1645.95 63.421 Q1650.12 67.4314 1657.53 67.4314 Q1661.83 67.4314 1665.84 66.3781 Q1669.89 65.3249 1673.86 63.2184 L1673.86 70.267 Q1669.85 71.9684 1665.64 72.8596 Q1661.42 73.7508 1657.09 73.7508 Q1646.23 73.7508 1639.87 67.4314 Q1633.55 61.1119 1633.55 50.3365 Q1633.55 39.1965 1639.55 32.6746 Q1645.58 26.1121 1655.79 26.1121 Q1664.95 26.1121 1670.25 32.0264 Q1675.6 37.9003 1675.6 48.0275 M1668.15 45.84 Q1668.07 39.7232 1664.7 36.0774 Q1661.38 32.4315 1655.87 32.4315 Q1649.64 32.4315 1645.87 35.9558 Q1642.14 39.4801 1641.57 45.8805 L1668.15 45.84 Z" fill="#000000" fill-rule="evenodd" fill-opacity="1" /><path clip-path="url(#clip770)" d="M1725.55 45.1919 L1725.55 72.576 L1718.1 72.576 L1718.1 45.4349 Q1718.1 38.994 1715.58 35.7938 Q1713.07 32.5936 1708.05 32.5936 Q1702.01 32.5936 1698.53 36.4419 Q1695.05 40.2903 1695.05 46.9338 L1695.05 72.576 L1687.55 72.576 L1687.55 27.2059 L1695.05 27.2059 L1695.05 34.2544 Q1697.72 30.163 1701.32 28.1376 Q1704.97 26.1121 1709.71 26.1121 Q1717.53 26.1121 1721.54 30.9732 Q1725.55 35.7938 1725.55 45.1919 Z" fill="#000000" fill-rule="evenodd" fill-opacity="1" /><path clip-path="url(#clip770)" d="M1774.16 14.324 L1774.16 27.2059 L1789.51 27.2059 L1789.51 32.9987 L1774.16 32.9987 L1774.16 57.6282 Q1774.16 63.1779 1775.66 64.7578 Q1777.2 66.3376 1781.86 66.3376 L1789.51 66.3376 L1789.51 72.576 L1781.86 72.576 Q1773.23 72.576 1769.95 69.3758 Q1766.67 66.1351 1766.67 57.6282 L1766.67 32.9987 L1761.2 32.9987 L1761.2 27.2059 L1766.67 27.2059 L1766.67 14.324 L1774.16 14.324 Z" fill="#000000" fill-rule="evenodd" fill-opacity="1" /><path clip-path="url(#clip770)" d="M1837.03 45.1919 L1837.03 72.576 L1829.58 72.576 L1829.58 45.4349 Q1829.58 38.994 1827.06 35.7938 Q1824.55 32.5936 1819.53 32.5936 Q1813.49 32.5936 1810.01 36.4419 Q1806.53 40.2903 1806.53 46.9338 L1806.53 72.576 L1799.03 72.576 L1799.03 9.54393 L1806.53 9.54393 L1806.53 34.2544 Q1809.2 30.163 1812.81 28.1376 Q1816.45 26.1121 1821.19 26.1121 Q1829.01 26.1121 1833.02 30.9732 Q1837.03 35.7938 1837.03 45.1919 Z" fill="#000000" fill-rule="evenodd" fill-opacity="1" /><path clip-path="url(#clip770)" d="M1890.7 48.0275 L1890.7 51.6733 L1856.43 51.6733 Q1856.92 59.3701 1861.05 63.421 Q1865.22 67.4314 1872.64 67.4314 Q1876.93 67.4314 1880.94 66.3781 Q1884.99 65.3249 1888.96 63.2184 L1888.96 70.267 Q1884.95 71.9684 1880.74 72.8596 Q1876.53 73.7508 1872.19 73.7508 Q1861.34 73.7508 1854.98 67.4314 Q1848.66 61.1119 1848.66 50.3365 Q1848.66 39.1965 1854.65 32.6746 Q1860.69 26.1121 1870.9 26.1121 Q1880.05 26.1121 1885.36 32.0264 Q1890.7 37.9003 1890.7 48.0275 M1883.25 45.84 Q1883.17 39.7232 1879.81 36.0774 Q1876.49 32.4315 1870.98 32.4315 Q1864.74 32.4315 1860.97 35.9558 Q1857.24 39.4801 1856.68 45.8805 L1883.25 45.84 Z" fill="#000000" fill-rule="evenodd" fill-opacity="1" /><path clip-path="url(#clip770)" d="M1959.16 49.3643 Q1959.16 41.2625 1955.8 36.8065 Q1952.48 32.3505 1946.44 32.3505 Q1940.45 32.3505 1937.09 36.8065 Q1933.77 41.2625 1933.77 49.3643 Q1933.77 57.4256 1937.09 61.8816 Q1940.45 66.3376 1946.44 66.3376 Q1952.48 66.3376 1955.8 61.8816 Q1959.16 57.4256 1959.16 49.3643 M1966.62 66.9452 Q1966.62 78.5308 1961.47 84.1616 Q1956.33 89.8329 1945.72 89.8329 Q1941.79 89.8329 1938.3 89.2252 Q1934.82 88.6581 1931.54 87.4428 L1931.54 80.1917 Q1934.82 81.9741 1938.02 82.8248 Q1941.22 83.6755 1944.54 83.6755 Q1951.87 83.6755 1955.52 79.8271 Q1959.16 76.0193 1959.16 68.282 L1959.16 64.5957 Q1956.86 68.6061 1953.25 70.5911 Q1949.65 72.576 1944.62 72.576 Q1936.28 72.576 1931.17 66.2161 Q1926.07 59.8562 1926.07 49.3643 Q1926.07 38.832 1931.17 32.472 Q1936.28 26.1121 1944.62 26.1121 Q1949.65 26.1121 1953.25 28.0971 Q1956.86 30.082 1959.16 34.0924 L1959.16 27.2059 L1966.62 27.2059 L1966.62 66.9452 Z" fill="#000000" fill-rule="evenodd" fill-opacity="1" /><path clip-path="url(#clip770)" d="M2002.59 49.7694 Q1993.56 49.7694 1990.07 51.8354 Q1986.59 53.9013 1986.59 58.8839 Q1986.59 62.8538 1989.18 65.2034 Q1991.82 67.5124 1996.31 67.5124 Q2002.51 67.5124 2006.24 63.1374 Q2010 58.7219 2010 51.4303 L2010 49.7694 L2002.59 49.7694 M2017.46 46.6907 L2017.46 72.576 L2010 72.576 L2010 65.6895 Q2007.45 69.8214 2003.64 71.8063 Q1999.84 73.7508 1994.33 73.7508 Q1987.36 73.7508 1983.23 69.8619 Q1979.14 65.9325 1979.14 59.3701 Q1979.14 51.7138 1984.24 47.825 Q1989.38 43.9361 1999.55 43.9361 L2010 43.9361 L2010 43.2069 Q2010 38.0623 2006.6 35.2672 Q2003.24 32.4315 1997.12 32.4315 Q1993.23 32.4315 1989.55 33.3632 Q1985.86 34.295 1982.46 36.1584 L1982.46 29.2718 Q1986.55 27.692 1990.4 26.9223 Q1994.25 26.1121 1997.89 26.1121 Q2007.74 26.1121 2012.6 31.2163 Q2017.46 36.3204 2017.46 46.6907 Z" fill="#000000" fill-rule="evenodd" fill-opacity="1" /><path clip-path="url(#clip770)" d="M2040.02 65.7705 L2040.02 89.8329 L2032.53 89.8329 L2032.53 27.2059 L2040.02 27.2059 L2040.02 34.0924 Q2042.37 30.0415 2045.94 28.0971 Q2049.54 26.1121 2054.52 26.1121 Q2062.79 26.1121 2067.93 32.6746 Q2073.12 39.2371 2073.12 49.9314 Q2073.12 60.6258 2067.93 67.1883 Q2062.79 73.7508 2054.52 73.7508 Q2049.54 73.7508 2045.94 71.8063 Q2042.37 69.8214 2040.02 65.7705 M2065.38 49.9314 Q2065.38 41.7081 2061.98 37.0496 Q2058.61 32.3505 2052.7 32.3505 Q2046.79 32.3505 2043.38 37.0496 Q2040.02 41.7081 2040.02 49.9314 Q2040.02 58.1548 2043.38 62.8538 Q2046.79 67.5124 2052.7 67.5124 Q2058.61 67.5124 2061.98 62.8538 Q2065.38 58.1548 2065.38 49.9314 Z" fill="#000000" fill-rule="evenodd" fill-opacity="1" /><path clip-path="url(#clip770)" d="M2114.4 28.5427 L2114.4 35.5912 Q2111.24 33.9709 2107.83 33.1607 Q2104.43 32.3505 2100.78 32.3505 Q2095.23 32.3505 2092.44 34.0519 Q2089.68 35.7533 2089.68 39.156 Q2089.68 41.7486 2091.67 43.2475 Q2093.65 44.7058 2099.65 46.0426 L2102.2 46.6097 Q2110.14 48.3111 2113.46 51.4303 Q2116.83 54.509 2116.83 60.0587 Q2116.83 66.3781 2111.8 70.0644 Q2106.82 73.7508 2098.07 73.7508 Q2094.42 73.7508 2090.45 73.0216 Q2086.53 72.3329 2082.15 70.9151 L2082.15 63.2184 Q2086.28 65.3654 2090.29 66.4591 Q2094.3 67.5124 2098.23 67.5124 Q2103.5 67.5124 2106.33 65.73 Q2109.17 63.9071 2109.17 60.6258 Q2109.17 57.5877 2107.1 55.9673 Q2105.08 54.3469 2098.15 52.8481 L2095.56 52.2405 Q2088.63 50.7821 2085.55 47.7845 Q2082.47 44.7463 2082.47 39.4801 Q2082.47 33.0797 2087.01 29.5959 Q2091.55 26.1121 2099.89 26.1121 Q2104.03 26.1121 2107.67 26.7198 Q2111.32 27.3274 2114.4 28.5427 Z" fill="#000000" fill-rule="evenodd" fill-opacity="1" /><polyline clip-path="url(#clip772)" style="stroke:#009af9; stroke-linecap:round; stroke-linejoin:round; stroke-width:4; stroke-opacity:1; fill:none" points="
  396.584,1386.4 425.84,1374.01 453.967,1361.63 481.187,1349.24 507.654,1336.85 533.481,1324.47 558.752,1312.08 583.533,1299.7 607.878,1287.31 631.829,1274.93 
  655.421,1262.54 678.685,1250.16 701.646,1237.77 724.327,1225.39 746.746,1213 768.921,1200.62 790.866,1188.23 812.596,1175.85 834.122,1163.46 855.456,1151.08 
  876.608,1138.69 897.586,1126.31 918.4,1113.92 939.057,1101.54 959.564,1089.15 979.928,1076.76 1000.16,1064.38 1020.25,1051.99 1040.22,1039.61 1060.07,1027.22 
  1079.81,1014.84 1099.43,1002.45 1118.95,990.068 1138.36,977.683 1157.68,965.297 1176.9,952.912 1196.03,940.527 1215.07,928.142 1234.02,915.756 1252.89,903.371 
  1271.68,890.986 1290.39,878.601 1309.03,866.215 1327.6,853.83 1346.09,841.445 1364.52,829.06 1382.88,816.674 1401.18,804.289 1419.41,791.904 1437.59,779.519 
  1455.71,767.133 1473.77,754.748 1491.77,742.363 1509.72,729.978 1527.62,717.592 1545.47,705.207 1563.27,692.822 1581.02,680.437 1598.73,668.051 1616.39,655.666 
  1634,643.281 1651.58,630.896 1669.11,618.51 1686.6,606.125 1704.05,593.74 1721.46,581.355 1738.83,568.969 1756.17,556.584 1773.47,544.199 1790.74,531.814 
  1807.97,519.428 1825.17,507.043 1842.33,494.658 1859.46,482.273 1876.57,469.887 1893.64,457.502 1910.68,445.117 1927.69,432.732 1944.68,420.346 1961.64,407.961 
  1978.57,395.576 1995.47,383.191 2012.35,370.805 2029.2,358.42 2046.03,346.035 2062.83,333.65 2079.61,321.265 2096.37,308.879 2113.1,296.494 2129.81,284.109 
  2146.5,271.724 2163.16,259.338 2179.81,246.953 2196.44,234.568 2213.04,222.183 2229.63,209.797 2246.19,197.412 2262.74,185.027 2279.27,172.642 2295.78,160.256 
  
  "/>
<path clip-path="url(#clip770)" d="
M406.713 270.476 L660.458 270.476 L660.458 166.796 L406.713 166.796  Z
  " fill="#ffffff" fill-rule="evenodd" fill-opacity="1"/>
<polyline clip-path="url(#clip770)" style="stroke:#000000; stroke-linecap:round; stroke-linejoin:round; stroke-width:4; stroke-opacity:1; fill:none" points="
  406.713,270.476 660.458,270.476 660.458,166.796 406.713,166.796 406.713,270.476 
  "/>
<polyline clip-path="url(#clip770)" style="stroke:#009af9; stroke-linecap:round; stroke-linejoin:round; stroke-width:4; stroke-opacity:1; fill:none" points="
  429.081,218.636 563.291,218.636 
  "/>
<path clip-path="url(#clip770)" d="M599.502 238.323 Q597.696 242.953 595.984 244.365 Q594.271 245.777 591.4 245.777 L587.997 245.777 L587.997 242.212 L590.497 242.212 Q592.257 242.212 593.229 241.379 Q594.201 240.545 595.382 237.443 L596.146 235.499 L585.659 209.99 L590.173 209.99 L598.275 230.268 L606.377 209.99 L610.891 209.99 L599.502 238.323 Z" fill="#000000" fill-rule="evenodd" fill-opacity="1" /><path clip-path="url(#clip770)" d="M618.182 231.981 L625.821 231.981 L625.821 205.615 L617.511 207.282 L617.511 203.022 L625.775 201.356 L630.451 201.356 L630.451 231.981 L638.09 231.981 L638.09 235.916 L618.182 235.916 L618.182 231.981 Z" fill="#000000" fill-rule="evenodd" fill-opacity="1" /></svg>
